#define boom6_black_width 106
#define boom6_black_height 55
static unsigned char boom6_black_bits[] = {
   0x00, 0x00, 0x00, 0x00, 0x00, 0x00, 0x00, 0x00, 0x00, 0x00, 0x00, 0x00,
   0x00, 0x00, 0x00, 0x00, 0x00, 0x00, 0x00, 0x00, 0x00, 0x00, 0x00, 0x00,
   0x00, 0x00, 0x00, 0x00, 0x00, 0x00, 0x00, 0x00, 0x00, 0x00, 0x00, 0x00,
   0x00, 0x00, 0x00, 0x00, 0x00, 0x00, 0x00, 0x00, 0x00, 0x00, 0x00, 0x00,
   0x00, 0x00, 0x00, 0x00, 0x00, 0x00, 0x00, 0x00, 0x00, 0x00, 0x00, 0x00,
   0x00, 0x00, 0x00, 0x00, 0x00, 0x00, 0x00, 0x00, 0x00, 0x00, 0x00, 0x00,
   0x00, 0x00, 0x00, 0x00, 0x00, 0x00, 0x00, 0x00, 0x00, 0x00, 0x00, 0x00,
   0x00, 0x00, 0x00, 0x00, 0x00, 0x00, 0x00, 0x00, 0x60, 0x00, 0x00, 0x00,
   0x00, 0x00, 0x00, 0x00, 0x00, 0x00, 0x00, 0x7c, 0x00, 0x00, 0x20, 0x00,
   0x00, 0x00, 0x00, 0x00, 0x00, 0x00, 0x00, 0x00, 0x00, 0xfc, 0x01, 0x00,
   0x20, 0x00, 0x00, 0x00, 0x00, 0x00, 0x00, 0x00, 0x00, 0x00, 0x00, 0xf8,
   0x03, 0x00, 0x20, 0x00, 0x00, 0x00, 0x00, 0x00, 0x00, 0x00, 0x00, 0x00,
   0x00, 0xf0, 0x03, 0x00, 0x00, 0x00, 0x00, 0x00, 0x00, 0x00, 0x00, 0x00,
   0x00, 0xf0, 0x7f, 0x60, 0x06, 0x00, 0x00, 0xf8, 0x01, 0x00, 0x00, 0x00,
   0x00, 0xc0, 0x81, 0xff, 0xff, 0x61, 0x06, 0x00, 0x80, 0xff, 0x83, 0x07,
   0x00, 0x00, 0x00, 0xc0, 0x81, 0xff, 0xff, 0x73, 0x0e, 0xe0, 0xff, 0xff,
   0x83, 0x07, 0x00, 0x00, 0x00, 0xc0, 0x80, 0xff, 0xf8, 0xf7, 0x0e, 0xf0,
   0xff, 0xff, 0x87, 0x07, 0x00, 0x00, 0x00, 0x40, 0x80, 0x3f, 0xf0, 0xf7,
   0x07, 0xf0, 0xff, 0xe3, 0x87, 0x07, 0x00, 0x00, 0x00, 0x00, 0x80, 0x1f,
   0xe0, 0xef, 0x07, 0xf0, 0xff, 0xc1, 0x07, 0x07, 0x00, 0x00, 0x00, 0x00,
   0x80, 0x1f, 0xe0, 0xcf, 0x03, 0xf0, 0xff, 0xc1, 0x03, 0x06, 0x00, 0x00,
   0x00, 0x00, 0x80, 0x1f, 0xf0, 0x8f, 0x03, 0xf0, 0xff, 0xc1, 0xc3, 0x04,
   0x00, 0x00, 0x00, 0x00, 0x80, 0x1f, 0xfc, 0x07, 0x03, 0xf8, 0xff, 0xc1,
   0xc3, 0x04, 0x00, 0x00, 0x00, 0x00, 0xc0, 0x1f, 0xff, 0x03, 0x02, 0xfc,
   0xff, 0xc0, 0xc1, 0x04, 0x00, 0x00, 0x00, 0xc0, 0xc0, 0xff, 0xbf, 0x03,
   0x00, 0xfc, 0x7f, 0xf0, 0x81, 0x04, 0x00, 0x00, 0x00, 0xc0, 0xe0, 0xff,
   0x9f, 0x79, 0x00, 0xfc, 0x7f, 0xf8, 0x81, 0x00, 0x00, 0x00, 0x00, 0x40,
   0xe0, 0xff, 0x87, 0x7e, 0x00, 0xfc, 0x7f, 0x38, 0x1c, 0x00, 0x00, 0x00,
   0x00, 0x40, 0xc0, 0xff, 0x07, 0xff, 0x00, 0xfc, 0xff, 0x1f, 0x7e, 0x00,
   0x00, 0x00, 0x00, 0x40, 0xc0, 0xff, 0x83, 0x7f, 0x00, 0x78, 0xfe, 0x3f,
   0xfe, 0x00, 0x00, 0x00, 0x00, 0x00, 0x80, 0xff, 0x81, 0x7f, 0x00, 0x63,
   0xf8, 0x1f, 0xee, 0x00, 0x00, 0x00, 0x00, 0x00, 0x00, 0x3f, 0x80, 0x7f,
   0x00, 0x66, 0xf0, 0x1f, 0xe6, 0x00, 0x00, 0x00, 0x00, 0x00, 0x00, 0x07,
   0x80, 0xff, 0x00, 0x46, 0xe0, 0x0f, 0x66, 0x00, 0x00, 0x00, 0x00, 0x00,
   0x00, 0xc3, 0x83, 0x3f, 0x80, 0x4f, 0x00, 0x0e, 0x66, 0x00, 0x00, 0x00,
   0x00, 0x00, 0x00, 0xe3, 0xc3, 0x3f, 0xf0, 0x0f, 0x00, 0x0c, 0x7f, 0x00,
   0x00, 0x00, 0x00, 0x00, 0x00, 0xf3, 0xe3, 0xff, 0xff, 0x0f, 0x00, 0x8c,
   0x7f, 0x00, 0x00, 0x00, 0x00, 0x00, 0x00, 0xf1, 0xf3, 0xff, 0xff, 0x0f,
   0xfe, 0x89, 0x7f, 0x00, 0x00, 0x00, 0x00, 0x00, 0x00, 0xe0, 0xfb, 0x3f,
   0xff, 0x03, 0xff, 0x89, 0x7f, 0x00, 0x00, 0x00, 0x00, 0x00, 0x00, 0x80,
   0xfb, 0x1f, 0xff, 0x00, 0xff, 0x01, 0x6f, 0x00, 0x00, 0x00, 0x00, 0x00,
   0x00, 0x80, 0xf9, 0x0f, 0x1e, 0x00, 0xfe, 0x00, 0x66, 0x00, 0x00, 0x00,
   0x00, 0x00, 0x00, 0x80, 0xf8, 0x3f, 0x1e, 0x00, 0xfe, 0x00, 0x42, 0x00,
   0x00, 0x00, 0x00, 0x00, 0x00, 0x00, 0xfc, 0xff, 0x3c, 0x00, 0x7c, 0x00,
   0x42, 0x00, 0x00, 0x00, 0x00, 0x00, 0x00, 0x00, 0xfc, 0xff, 0x79, 0x00,
   0x1c, 0x00, 0x02, 0x00, 0x00, 0x00, 0x00, 0x00, 0x00, 0x00, 0xfe, 0xff,
   0x7f, 0x00, 0x0c, 0x00, 0x02, 0x00, 0x00, 0x00, 0x00, 0x00, 0x00, 0x04,
   0x7e, 0xc0, 0x7f, 0x00, 0x0c, 0x00, 0x00, 0x00, 0x00, 0x00, 0x00, 0x00,
   0x00, 0x04, 0x3e, 0x00, 0x7f, 0x00, 0x04, 0x00, 0x00, 0x00, 0x00, 0x00,
   0x00, 0x00, 0x00, 0x00, 0x1e, 0x1e, 0x3c, 0x1c, 0x04, 0x00, 0x00, 0x00,
   0x00, 0x00, 0x00, 0x00, 0x00, 0x00, 0x1c, 0xff, 0x00, 0x7c, 0x00, 0x00,
   0x00, 0x00, 0x00, 0x00, 0x00, 0x00, 0x00, 0x00, 0x1c, 0xff, 0x01, 0xfc,
   0x00, 0x00, 0x00, 0x00, 0x00, 0x00, 0x00, 0x00, 0x00, 0x00, 0x0c, 0xff,
   0x01, 0xfc, 0x00, 0x00, 0x00, 0x00, 0x00, 0x00, 0x00, 0x00, 0x00, 0x00,
   0x08, 0xfc, 0x01, 0xfc, 0x01, 0x00, 0x00, 0x00, 0x00, 0x00, 0x00, 0x00,
   0x00, 0x00, 0x08, 0xf0, 0x01, 0xf8, 0x00, 0x00, 0x00, 0x00, 0x00, 0x00,
   0x00, 0x00, 0x00, 0x00, 0x08, 0xf0, 0x01, 0xd8, 0x00, 0x00, 0x00, 0x00,
   0x00, 0x00, 0x00, 0x00, 0x00, 0x00, 0x00, 0xe0, 0x00, 0x90, 0x00, 0x00,
   0x00, 0x00, 0x00, 0x00, 0x00, 0x00, 0x00, 0x00, 0x00, 0x60, 0x00, 0x90,
   0x00, 0x00, 0x00, 0x00, 0x00, 0x00, 0x00, 0x00, 0x00, 0x00, 0x00, 0x40,
   0x00, 0x10, 0x00, 0x00, 0x00, 0x00, 0x00, 0x00, 0x00, 0x00, 0x00, 0x00,
   0x00, 0x40, 0x00, 0x00, 0x00, 0x00, 0x00, 0x00, 0x00, 0x00, 0x00, 0x00,
   0x00, 0x00, 0x00, 0x00, 0x00, 0x00, 0x00, 0x00, 0x00, 0x00, 0x00, 0x00,
   0x00, 0x00, 0x00, 0x00, 0x00, 0x00, 0x00, 0x00, 0x00, 0x00, 0x00, 0x00,
   0x00, 0x00 };
