#define dragon2_gray_width 64
#define dragon2_gray_height 23
static unsigned char dragon2_gray_bits[] = {
   0x00, 0x00, 0x00, 0x00, 0x00, 0x00, 0x00, 0x00, 0x1c, 0x00, 0x00, 0x00,
   0x00, 0x00, 0x00, 0x00, 0x30, 0x00, 0x00, 0x00, 0x00, 0x00, 0x00, 0x00,
   0x60, 0x00, 0x00, 0x00, 0x00, 0x00, 0x00, 0x00, 0x40, 0x00, 0x00, 0x00,
   0x00, 0x00, 0x00, 0x00, 0x40, 0x00, 0x00, 0x00, 0x00, 0x00, 0x00, 0x00,
   0xc0, 0x0c, 0x00, 0x00, 0x00, 0x00, 0x00, 0x00, 0x80, 0x1f, 0x00, 0x00,
   0xcc, 0x01, 0x00, 0x00, 0x80, 0x11, 0x00, 0x00, 0xfe, 0x03, 0x00, 0x00,
   0x00, 0x73, 0x00, 0x00, 0x1f, 0x0e, 0x00, 0x80, 0x00, 0xfe, 0x00, 0x80,
   0x0f, 0x74, 0x00, 0xf8, 0x00, 0xfe, 0x01, 0xe0, 0x07, 0xf0, 0x01, 0x3c,
   0x00, 0xc7, 0x0f, 0xf8, 0x03, 0xc0, 0x07, 0x1f, 0x00, 0x03, 0xff, 0xeb,
   0x01, 0x00, 0xdf, 0x0e, 0x80, 0x01, 0xfc, 0x7f, 0x00, 0x00, 0xfc, 0x07,
   0xc0, 0x01, 0xe0, 0x0f, 0x00, 0x00, 0xf0, 0x01, 0xc0, 0x00, 0x00, 0x00,
   0x00, 0x00, 0x00, 0x00, 0xe0, 0x00, 0x00, 0x00, 0x00, 0x00, 0x00, 0x00,
   0x30, 0x00, 0x00, 0x00, 0x00, 0x00, 0x00, 0x00, 0x1e, 0x00, 0x00, 0x00,
   0x00, 0x00, 0x00, 0x00, 0x00, 0x00, 0x00, 0x00, 0x00, 0x00, 0x00, 0x00,
   0x00, 0x00, 0x00, 0x00, 0x00, 0x00, 0x00, 0x00, 0x00, 0x00, 0x00, 0x00,
   0x00, 0x00, 0x00, 0x00 };
