#define dragon3_black_width 64
#define dragon3_black_height 23
static unsigned char dragon3_black_bits[] = {
   0x00, 0x00, 0x00, 0x00, 0x00, 0x00, 0x00, 0x00, 0x1c, 0x00, 0x00, 0x00,
   0x00, 0x00, 0x00, 0x00, 0x23, 0x00, 0x00, 0x00, 0x00, 0x00, 0x00, 0x00,
   0x4c, 0x00, 0x00, 0x00, 0x00, 0x00, 0x00, 0x00, 0x90, 0x00, 0x00, 0x00,
   0x00, 0x00, 0x00, 0x00, 0xa0, 0x00, 0x00, 0x00, 0x00, 0x00, 0x00, 0x00,
   0xa0, 0x0c, 0x00, 0xf8, 0x03, 0x00, 0x00, 0xfc, 0x20, 0x33, 0x00, 0x07,
   0x1c, 0x00, 0x00, 0x06, 0x40, 0x40, 0x80, 0x01, 0x70, 0x00, 0xc0, 0x03,
   0x40, 0x86, 0x61, 0x00, 0xc0, 0x01, 0x78, 0x00, 0x80, 0x0c, 0x1e, 0xc0,
   0x03, 0x07, 0x0e, 0x70, 0x00, 0x01, 0x00, 0x60, 0x06, 0x1c, 0x03, 0xce,
   0x00, 0x01, 0x00, 0x30, 0x1c, 0xf0, 0x81, 0x01, 0x80, 0x18, 0x00, 0x18,
   0x70, 0x00, 0xc0, 0x00, 0x80, 0x24, 0x00, 0x0c, 0xc0, 0x01, 0x60, 0x00,
   0x40, 0xc2, 0x00, 0x07, 0x00, 0x07, 0x30, 0x00, 0x20, 0x02, 0xc7, 0x01,
   0x00, 0x1c, 0x1c, 0x00, 0x20, 0x01, 0x38, 0x00, 0x00, 0xe0, 0x03, 0x00,
   0x10, 0x01, 0x00, 0x00, 0x00, 0x00, 0x00, 0x00, 0xce, 0x00, 0x00, 0x00,
   0x00, 0x00, 0x00, 0x00, 0x21, 0x00, 0x00, 0x00, 0x00, 0x00, 0x00, 0x00,
   0x1e, 0x00, 0x00, 0x00, 0x00, 0x00, 0x00, 0x00, 0x00, 0x00, 0x00, 0x00,
   0x00, 0x00, 0x00, 0x00 };
