#define dragon1_light_width 64
#define dragon1_light_height 23
static unsigned char dragon1_light_bits[] = {
   0x00, 0x00, 0x00, 0x00, 0x00, 0x00, 0x00, 0x00, 0x00, 0x00, 0x00, 0x00,
   0x00, 0x00, 0x00, 0x00, 0x00, 0x00, 0x00, 0x00, 0x00, 0x00, 0x00, 0x00,
   0x00, 0x00, 0x00, 0x00, 0x00, 0x00, 0x00, 0x00, 0x02, 0x00, 0x00, 0x00,
   0x00, 0x00, 0x00, 0x00, 0x08, 0x00, 0x00, 0x00, 0x00, 0x00, 0x00, 0x00,
   0x00, 0x00, 0x00, 0x00, 0x00, 0x00, 0x00, 0x00, 0x10, 0x00, 0x00, 0x00,
   0x00, 0x00, 0x00, 0x00, 0x00, 0x00, 0x7f, 0x00, 0x00, 0x00, 0x3f, 0x00,
   0x20, 0xe0, 0x8c, 0x01, 0x00, 0xc0, 0x71, 0x00, 0x00, 0x40, 0x01, 0x07,
   0x00, 0x30, 0x08, 0x01, 0x40, 0x00, 0x00, 0x1c, 0x00, 0x1e, 0x00, 0x07,
   0x00, 0x00, 0x00, 0x62, 0x80, 0x01, 0x00, 0x1c, 0x80, 0x00, 0x00, 0xc0,
   0xc1, 0x02, 0x00, 0x12, 0x00, 0x00, 0x00, 0x00, 0x3e, 0x00, 0x00, 0xc0,
   0x40, 0x00, 0x00, 0x00, 0x48, 0x00, 0x00, 0x00, 0x00, 0x00, 0x00, 0x00,
   0x00, 0x00, 0x00, 0x00, 0x10, 0x00, 0x00, 0x00, 0x00, 0x00, 0x00, 0x00,
   0x00, 0x00, 0x00, 0x00, 0x00, 0x00, 0x00, 0x00, 0x08, 0x00, 0x00, 0x00,
   0x00, 0x00, 0x00, 0x00, 0x00, 0x00, 0x00, 0x00, 0x00, 0x00, 0x00, 0x00,
   0x00, 0x00, 0x00, 0x00, 0x00, 0x00, 0x00, 0x00, 0x00, 0x00, 0x00, 0x00,
   0x00, 0x00, 0x00, 0x00 };
