#define dragon3_gray_width 64
#define dragon3_gray_height 23
static unsigned char dragon3_gray_bits[] = {
   0x00, 0x00, 0x00, 0x00, 0x00, 0x00, 0x00, 0x00, 0x00, 0x00, 0x00, 0x00,
   0x00, 0x00, 0x00, 0x00, 0x1c, 0x00, 0x00, 0x00, 0x00, 0x00, 0x00, 0x00,
   0x30, 0x00, 0x00, 0x00, 0x00, 0x00, 0x00, 0x00, 0x60, 0x00, 0x00, 0x00,
   0x00, 0x00, 0x00, 0x00, 0x40, 0x00, 0x00, 0x00, 0x00, 0x00, 0x00, 0x00,
   0x40, 0x00, 0x00, 0x00, 0x00, 0x00, 0x00, 0x00, 0xc0, 0x0c, 0x00, 0x00,
   0x00, 0x00, 0x00, 0x00, 0x80, 0x3f, 0x00, 0x98, 0x03, 0x00, 0x00, 0xe0,
   0x80, 0x31, 0x00, 0xfc, 0x07, 0x00, 0x00, 0xfa, 0x00, 0x33, 0x00, 0x3e,
   0x1c, 0x00, 0x00, 0x8f, 0x00, 0xfe, 0x00, 0x1e, 0xe8, 0x00, 0xf0, 0x01,
   0x00, 0xfe, 0xf7, 0x0f, 0xe0, 0x03, 0x78, 0x00, 0x00, 0xe7, 0x7f, 0x07,
   0x80, 0x0f, 0x3e, 0x00, 0x00, 0xc3, 0xff, 0x03, 0x00, 0xbe, 0x1d, 0x00,
   0x80, 0x01, 0xff, 0x00, 0x00, 0xf8, 0x0f, 0x00, 0xc0, 0x01, 0x38, 0x00,
   0x00, 0xe0, 0x03, 0x00, 0xc0, 0x00, 0x00, 0x00, 0x00, 0x00, 0x00, 0x00,
   0xe0, 0x00, 0x00, 0x00, 0x00, 0x00, 0x00, 0x00, 0x30, 0x00, 0x00, 0x00,
   0x00, 0x00, 0x00, 0x00, 0x1e, 0x00, 0x00, 0x00, 0x00, 0x00, 0x00, 0x00,
   0x00, 0x00, 0x00, 0x00, 0x00, 0x00, 0x00, 0x00, 0x00, 0x00, 0x00, 0x00,
   0x00, 0x00, 0x00, 0x00 };
