#define dragon3_light_width 64
#define dragon3_light_height 23
static unsigned char dragon3_light_bits[] = {
   0x00, 0x00, 0x00, 0x00, 0x00, 0x00, 0x00, 0x00, 0x00, 0x00, 0x00, 0x00,
   0x00, 0x00, 0x00, 0x00, 0x00, 0x00, 0x00, 0x00, 0x00, 0x00, 0x00, 0x00,
   0x02, 0x00, 0x00, 0x00, 0x00, 0x00, 0x00, 0x00, 0x08, 0x00, 0x00, 0x00,
   0x00, 0x00, 0x00, 0x00, 0x00, 0x00, 0x00, 0x00, 0x00, 0x00, 0x00, 0x00,
   0x10, 0x00, 0x00, 0x00, 0x00, 0x00, 0x00, 0x00, 0x00, 0x00, 0x00, 0xf8,
   0x03, 0x00, 0x00, 0xf8, 0x20, 0x00, 0x00, 0x66, 0x0c, 0x00, 0x00, 0x1c,
   0x00, 0x40, 0x80, 0x03, 0x38, 0x00, 0x80, 0x05, 0x40, 0xc0, 0xe1, 0x01,
   0xe0, 0x00, 0xf0, 0x00, 0x00, 0x00, 0xff, 0x01, 0x10, 0x03, 0x0c, 0x00,
   0x80, 0x00, 0x08, 0x00, 0x00, 0x0c, 0x06, 0x00, 0x00, 0x00, 0x80, 0x00,
   0x00, 0xf0, 0x01, 0x00, 0x40, 0x00, 0x00, 0x00, 0x00, 0x40, 0x02, 0x00,
   0x00, 0x00, 0x00, 0x00, 0x00, 0x00, 0x00, 0x00, 0x10, 0x00, 0x00, 0x00,
   0x00, 0x00, 0x00, 0x00, 0x00, 0x00, 0x00, 0x00, 0x00, 0x00, 0x00, 0x00,
   0x08, 0x00, 0x00, 0x00, 0x00, 0x00, 0x00, 0x00, 0x00, 0x00, 0x00, 0x00,
   0x00, 0x00, 0x00, 0x00, 0x00, 0x00, 0x00, 0x00, 0x00, 0x00, 0x00, 0x00,
   0x00, 0x00, 0x00, 0x00, 0x00, 0x00, 0x00, 0x00, 0x00, 0x00, 0x00, 0x00,
   0x00, 0x00, 0x00, 0x00 };
