#define dragon1_black_width 64
#define dragon1_black_height 23
static unsigned char dragon1_black_bits[] = {
   0x00, 0x00, 0x00, 0x00, 0x00, 0x00, 0x00, 0x00, 0x00, 0x00, 0x00, 0x00,
   0x00, 0x00, 0x00, 0x00, 0x1c, 0x00, 0x00, 0x00, 0x00, 0x00, 0x00, 0x00,
   0x23, 0x00, 0x00, 0x00, 0x00, 0x00, 0x00, 0x00, 0x4c, 0x00, 0x00, 0x00,
   0x00, 0x00, 0x00, 0x00, 0x90, 0x00, 0x00, 0x00, 0x00, 0x00, 0x00, 0x00,
   0xa0, 0x00, 0x00, 0x00, 0x00, 0x00, 0x00, 0x00, 0xa0, 0x0c, 0x7f, 0x00,
   0x00, 0x80, 0x7f, 0x00, 0x20, 0xf3, 0x80, 0x03, 0x00, 0xe0, 0xc0, 0x00,
   0x40, 0x00, 0x00, 0x0e, 0x00, 0x38, 0x80, 0x03, 0x40, 0x06, 0x00, 0x38,
   0x00, 0x0f, 0x00, 0x0e, 0x80, 0x0c, 0x78, 0xe0, 0xc0, 0x01, 0x00, 0x18,
   0x00, 0x01, 0xcc, 0x80, 0x63, 0x80, 0x0f, 0x20, 0x00, 0x01, 0x83, 0x03,
   0x3e, 0xf0, 0x38, 0xe0, 0x80, 0xf8, 0x00, 0x0e, 0x00, 0x18, 0xe0, 0x00,
   0x80, 0x04, 0x00, 0x38, 0x00, 0x0c, 0x00, 0x03, 0x40, 0x02, 0x00, 0xe0,
   0x00, 0x06, 0x00, 0x0e, 0x20, 0x02, 0x00, 0x80, 0x83, 0x03, 0x00, 0xf8,
   0x20, 0x01, 0x00, 0x00, 0x7c, 0x00, 0x00, 0x80, 0x10, 0x01, 0x00, 0x00,
   0x00, 0x00, 0x00, 0x00, 0xce, 0x00, 0x00, 0x00, 0x00, 0x00, 0x00, 0x00,
   0x21, 0x00, 0x00, 0x00, 0x00, 0x00, 0x00, 0x00, 0x1e, 0x00, 0x00, 0x00,
   0x00, 0x00, 0x00, 0x00 };
