#define dragon1_gray_width 64
#define dragon1_gray_height 23
static unsigned char dragon1_gray_bits[] = {
   0x00, 0x00, 0x00, 0x00, 0x00, 0x00, 0x00, 0x00, 0x00, 0x00, 0x00, 0x00,
   0x00, 0x00, 0x00, 0x00, 0x00, 0x00, 0x00, 0x00, 0x00, 0x00, 0x00, 0x00,
   0x1c, 0x00, 0x00, 0x00, 0x00, 0x00, 0x00, 0x00, 0x30, 0x00, 0x00, 0x00,
   0x00, 0x00, 0x00, 0x00, 0x60, 0x00, 0x00, 0x00, 0x00, 0x00, 0x00, 0x00,
   0x40, 0x00, 0x00, 0x00, 0x00, 0x00, 0x00, 0x00, 0x40, 0x00, 0x00, 0x00,
   0x00, 0x00, 0x00, 0x00, 0xc0, 0x0c, 0x00, 0x00, 0x00, 0x00, 0x00, 0x00,
   0x80, 0x1f, 0x73, 0x00, 0x00, 0x00, 0x0e, 0x00, 0x80, 0xb1, 0xfe, 0x00,
   0x00, 0xc0, 0xf7, 0x00, 0x00, 0xf3, 0x87, 0x03, 0x00, 0xe0, 0xff, 0x00,
   0x00, 0xfe, 0x03, 0x1d, 0x00, 0x7e, 0xf0, 0x03, 0x00, 0xfe, 0x00, 0x3c,
   0x00, 0x0d, 0xc0, 0x0d, 0x00, 0x07, 0x00, 0xf0, 0xc1, 0x07, 0x00, 0x3f,
   0x00, 0x03, 0x00, 0xc0, 0xb7, 0x03, 0x00, 0xfc, 0x80, 0x01, 0x00, 0x00,
   0xff, 0x01, 0x00, 0xf0, 0xc0, 0x01, 0x00, 0x00, 0x7c, 0x00, 0x00, 0x00,
   0xc0, 0x00, 0x00, 0x00, 0x00, 0x00, 0x00, 0x00, 0xe0, 0x00, 0x00, 0x00,
   0x00, 0x00, 0x00, 0x00, 0x30, 0x00, 0x00, 0x00, 0x00, 0x00, 0x00, 0x00,
   0x1e, 0x00, 0x00, 0x00, 0x00, 0x00, 0x00, 0x00, 0x00, 0x00, 0x00, 0x00,
   0x00, 0x00, 0x00, 0x00 };
