#define dragon2_light_width 64
#define dragon2_light_height 23
static unsigned char dragon2_light_bits[] = {
   0x00, 0x00, 0x00, 0x00, 0x00, 0x00, 0x00, 0x00, 0x00, 0x00, 0x00, 0x00,
   0x00, 0x00, 0x00, 0x00, 0x02, 0x00, 0x00, 0x00, 0x00, 0x00, 0x00, 0x00,
   0x08, 0x00, 0x00, 0x00, 0x00, 0x00, 0x00, 0x00, 0x00, 0x00, 0x00, 0x00,
   0x00, 0x00, 0x00, 0x00, 0x10, 0x00, 0x00, 0x00, 0x00, 0x00, 0x00, 0x00,
   0x00, 0x00, 0x00, 0x00, 0xfc, 0x01, 0x00, 0x00, 0x20, 0x00, 0x00, 0x00,
   0x33, 0x06, 0x00, 0x00, 0x00, 0xe0, 0x00, 0xc0, 0x01, 0x1c, 0x00, 0xc0,
   0x40, 0x80, 0x01, 0xe0, 0x00, 0x70, 0x00, 0x78, 0x00, 0x00, 0x07, 0x70,
   0x00, 0x88, 0x01, 0x06, 0x80, 0x00, 0x1e, 0x18, 0x00, 0x00, 0x06, 0x03,
   0x00, 0x00, 0xf0, 0x07, 0x00, 0x00, 0xf8, 0x00, 0x40, 0x00, 0x00, 0x14,
   0x00, 0x00, 0x20, 0x01, 0x00, 0x00, 0x00, 0x00, 0x00, 0x00, 0x00, 0x00,
   0x10, 0x00, 0x00, 0x00, 0x00, 0x00, 0x00, 0x00, 0x00, 0x00, 0x00, 0x00,
   0x00, 0x00, 0x00, 0x00, 0x08, 0x00, 0x00, 0x00, 0x00, 0x00, 0x00, 0x00,
   0x00, 0x00, 0x00, 0x00, 0x00, 0x00, 0x00, 0x00, 0x00, 0x00, 0x00, 0x00,
   0x00, 0x00, 0x00, 0x00, 0x00, 0x00, 0x00, 0x00, 0x00, 0x00, 0x00, 0x00,
   0x00, 0x00, 0x00, 0x00, 0x00, 0x00, 0x00, 0x00, 0x00, 0x00, 0x00, 0x00,
   0x00, 0x00, 0x00, 0x00 };
