#define dragon2_black_width 64
#define dragon2_black_height 23
static unsigned char dragon2_black_bits[] = {
   0x1c, 0x00, 0x00, 0x00, 0x00, 0x00, 0x00, 0x00, 0x23, 0x00, 0x00, 0x00,
   0x00, 0x00, 0x00, 0x00, 0x4c, 0x00, 0x00, 0x00, 0x00, 0x00, 0x00, 0x00,
   0x90, 0x00, 0x00, 0x00, 0x00, 0x00, 0x00, 0x00, 0xa0, 0x00, 0x00, 0x00,
   0x00, 0x00, 0x00, 0x00, 0xa0, 0x0c, 0x00, 0x00, 0xfc, 0x01, 0x00, 0x00,
   0x20, 0x13, 0x00, 0x80, 0x03, 0x0e, 0x00, 0x00, 0x40, 0xe0, 0x00, 0xc0,
   0x00, 0x38, 0x00, 0xe0, 0x40, 0x06, 0x03, 0x30, 0x00, 0xe0, 0x00, 0x3c,
   0x80, 0x0c, 0x0e, 0x18, 0xe0, 0x81, 0x03, 0x07, 0x00, 0x01, 0x38, 0x0c,
   0x30, 0x03, 0x8e, 0x01, 0x00, 0x01, 0xe0, 0x07, 0x18, 0x0e, 0xf8, 0xc0,
   0x80, 0x38, 0x00, 0x00, 0x0c, 0x38, 0x00, 0x60, 0x80, 0xe4, 0x00, 0x00,
   0x06, 0xe0, 0x00, 0x30, 0x40, 0x82, 0x03, 0x80, 0x03, 0x80, 0x03, 0x18,
   0x20, 0x02, 0x1e, 0xf0, 0x00, 0x00, 0x0e, 0x0e, 0x20, 0x01, 0xe0, 0x0f,
   0x00, 0x00, 0xf0, 0x01, 0x10, 0x01, 0x00, 0x00, 0x00, 0x00, 0x00, 0x00,
   0xce, 0x00, 0x00, 0x00, 0x00, 0x00, 0x00, 0x00, 0x21, 0x00, 0x00, 0x00,
   0x00, 0x00, 0x00, 0x00, 0x1e, 0x00, 0x00, 0x00, 0x00, 0x00, 0x00, 0x00,
   0x00, 0x00, 0x00, 0x00, 0x00, 0x00, 0x00, 0x00, 0x00, 0x00, 0x00, 0x00,
   0x00, 0x00, 0x00, 0x00 };
