#define fire4_light_width 8
#define fire4_light_height 12
static unsigned char fire4_light_bits[] = {
   0x00, 0x10, 0x00, 0x00, 0x00, 0x20, 0x08, 0x04, 0x0c, 0x3a, 0x28, 0x24 };
