#define fire2_gray_width 8
#define fire2_gray_height 12
static unsigned char fire2_gray_bits[] = {
   0x00, 0x00, 0x00, 0x00, 0x00, 0x00, 0x22, 0x10, 0x44, 0x04, 0x42, 0x00 };
