#define fire3_light_width 8
#define fire3_light_height 12
static unsigned char fire3_light_bits[] = {
   0x00, 0x00, 0x20, 0x10, 0x00, 0x04, 0x04, 0x18, 0x12, 0x58, 0x3c, 0x14 };
