#define fire2_light_width 8
#define fire2_light_height 12
static unsigned char fire2_light_bits[] = {
   0x00, 0x00, 0x20, 0x04, 0x10, 0x00, 0x0c, 0x24, 0x08, 0x60, 0x3c, 0x12 };
