#define fire1_gray_width 8
#define fire1_gray_height 12
static unsigned char fire1_gray_bits[] = {
   0x00, 0x00, 0x00, 0x00, 0x04, 0x08, 0x00, 0x06, 0x04, 0x42, 0x49, 0x02 };
