#define fire5_light_width 8
#define fire5_light_height 12
static unsigned char fire5_light_bits[] = {
   0x00, 0x00, 0x04, 0x00, 0x00, 0x08, 0x24, 0x04, 0x10, 0x18, 0x2a, 0x50 };
