#define fire4_gray_width 8
#define fire4_gray_height 12
static unsigned char fire4_gray_bits[] = {
   0x00, 0x00, 0x00, 0x08, 0x00, 0x00, 0x32, 0x10, 0x12, 0x00, 0x40, 0x02 };
