#define fire5_gray_width 8
#define fire5_gray_height 12
static unsigned char fire5_gray_bits[] = {
   0x00, 0x00, 0x00, 0x00, 0x20, 0x10, 0x00, 0x22, 0x06, 0x42, 0x04, 0x04 };
