#define fire1_light_width 8
#define fire1_light_height 12
static unsigned char fire1_light_bits[] = {
   0x00, 0x20, 0x00, 0x00, 0x10, 0x00, 0x00, 0x48, 0x20, 0x30, 0x24, 0x2c };
