#define fire3_gray_width 8
#define fire3_gray_height 12
static unsigned char fire3_gray_bits[] = {
   0x00, 0x00, 0x00, 0x00, 0x02, 0x08, 0x10, 0x24, 0x60, 0x02, 0x02, 0x00 };
