#define flame3_black_width 17
#define flame3_black_height 39
static unsigned char flame3_black_bits[] = {
   0x00, 0x04, 0x00, 0x02, 0x00, 0x00, 0x00, 0x04, 0x00, 0x40, 0x04, 0x00,
   0x04, 0x04, 0x00, 0xa4, 0x98, 0x00, 0xa0, 0x52, 0x00, 0x8a, 0x02, 0x01,
   0x28, 0x20, 0x01, 0x00, 0x00, 0x01, 0x02, 0x00, 0x00, 0x82, 0x02, 0x01,
   0x92, 0x00, 0x00, 0x80, 0x00, 0x00, 0x81, 0x00, 0x01, 0x09, 0x40, 0x01,
   0x08, 0x40, 0x00, 0x01, 0x02, 0x00, 0x00, 0x02, 0x01, 0x40, 0x00, 0x01,
   0x02, 0x00, 0x00, 0x02, 0x00, 0x00, 0x00, 0xa1, 0x00, 0x24, 0x00, 0x00,
   0x00, 0x40, 0x00, 0x10, 0x44, 0x00, 0x00, 0x40, 0x00, 0x08, 0x40, 0x00,
   0x08, 0x08, 0x00, 0x00, 0x00, 0x00, 0x00, 0x00, 0x00, 0x10, 0x00, 0x00,
   0x1c, 0x00, 0x00, 0x32, 0x00, 0x00, 0x2f, 0x00, 0x00, 0x3f, 0x00, 0x00,
   0x07, 0x00, 0x00, 0x01, 0x00, 0x00, 0x01, 0x00, 0x00 };
