#define flame2_black_width 17
#define flame2_black_height 39
static unsigned char flame2_black_bits[] = {
   0x00, 0x00, 0x00, 0x00, 0x42, 0x00, 0x04, 0x40, 0x00, 0x44, 0x04, 0x00,
   0x40, 0x04, 0x00, 0x04, 0x22, 0x00, 0xa0, 0x22, 0x00, 0xa8, 0xaa, 0x00,
   0x08, 0x91, 0x00, 0x00, 0x90, 0x00, 0x80, 0x84, 0x00, 0x04, 0x04, 0x00,
   0x04, 0x80, 0x00, 0x20, 0x90, 0x00, 0x85, 0x00, 0x00, 0x00, 0x00, 0x01,
   0x02, 0x00, 0x00, 0x20, 0x84, 0x00, 0x20, 0x84, 0x00, 0x02, 0x00, 0x00,
   0x04, 0x40, 0x00, 0x02, 0x80, 0x00, 0x0a, 0xa0, 0x00, 0x08, 0x24, 0x00,
   0x48, 0x20, 0x00, 0x08, 0x00, 0x00, 0x00, 0x00, 0x00, 0x10, 0x10, 0x00,
   0x50, 0x40, 0x00, 0x00, 0x40, 0x00, 0x00, 0x10, 0x00, 0x10, 0x00, 0x00,
   0x1c, 0x00, 0x00, 0x32, 0x00, 0x00, 0x2f, 0x00, 0x00, 0x3f, 0x00, 0x00,
   0x07, 0x00, 0x00, 0x01, 0x00, 0x00, 0x01, 0x00, 0x00 };
