#define flame4_black_width 17
#define flame4_black_height 39
static unsigned char flame4_black_bits[] = {
   0x00, 0x01, 0x00, 0x00, 0x00, 0x00, 0x82, 0x10, 0x00, 0x80, 0x00, 0x00,
   0xc8, 0x28, 0x00, 0x00, 0x04, 0x00, 0x54, 0x05, 0x00, 0x54, 0xa5, 0x00,
   0x20, 0x24, 0x00, 0x08, 0x82, 0x00, 0x00, 0x50, 0x00, 0x04, 0x00, 0x01,
   0x44, 0x04, 0x01, 0x00, 0x24, 0x01, 0x12, 0x84, 0x00, 0x10, 0x84, 0x00,
   0x01, 0x80, 0x00, 0x01, 0xa0, 0x00, 0x01, 0x20, 0x00, 0x00, 0x00, 0x01,
   0x22, 0x00, 0x00, 0x00, 0x00, 0x00, 0x02, 0x80, 0x00, 0x8a, 0x80, 0x00,
   0x00, 0x40, 0x00, 0x04, 0x00, 0x00, 0x44, 0x20, 0x00, 0x00, 0x20, 0x00,
   0x08, 0x00, 0x00, 0x00, 0x10, 0x00, 0x00, 0x00, 0x00, 0x10, 0x00, 0x00,
   0x1c, 0x00, 0x00, 0x32, 0x00, 0x00, 0x2f, 0x00, 0x00, 0x3f, 0x00, 0x00,
   0x07, 0x00, 0x00, 0x01, 0x00, 0x00, 0x01, 0x00, 0x00 };
