#define flame1_gray_width 17
#define flame1_gray_height 39
static unsigned char flame1_gray_bits[] = {
   0x00, 0x00, 0x00, 0x00, 0x00, 0x00, 0x00, 0x00, 0x00, 0x00, 0x00, 0x00,
   0x00, 0x00, 0x00, 0x00, 0x00, 0x00, 0x00, 0x00, 0x00, 0x00, 0x00, 0x00,
   0x00, 0x00, 0x00, 0x00, 0x00, 0x00, 0x00, 0x00, 0x00, 0x00, 0x08, 0x00,
   0x00, 0x00, 0x00, 0x00, 0x08, 0x00, 0x90, 0x00, 0x00, 0xa0, 0x02, 0x00,
   0xb0, 0x1b, 0x00, 0xb0, 0x1f, 0x00, 0xb0, 0x0f, 0x00, 0xe0, 0x0f, 0x00,
   0xe0, 0x0f, 0x00, 0xe0, 0x0f, 0x00, 0xa0, 0x0f, 0x00, 0xe0, 0x07, 0x00,
   0xc0, 0x03, 0x00, 0x80, 0x02, 0x00, 0xc0, 0x07, 0x00, 0x80, 0x07, 0x00,
   0x80, 0x03, 0x00, 0x80, 0x03, 0x00, 0x80, 0x09, 0x00, 0x80, 0x01, 0x00,
   0x00, 0x00, 0x00, 0x0c, 0x00, 0x00, 0x10, 0x00, 0x00, 0x00, 0x00, 0x00,
   0x00, 0x00, 0x00, 0x00, 0x00, 0x00, 0x00, 0x00, 0x00 };
