#define flame1_black_width 17
#define flame1_black_height 39
static unsigned char flame1_black_bits[] = {
   0x00, 0x00, 0x00, 0x80, 0x08, 0x00, 0x00, 0x00, 0x00, 0x48, 0x00, 0x00,
   0x08, 0x4a, 0x00, 0x48, 0x02, 0x00, 0x40, 0x02, 0x00, 0x14, 0x54, 0x00,
   0x40, 0x50, 0x00, 0x22, 0xb0, 0x00, 0x12, 0xa0, 0x00, 0x12, 0x01, 0x00,
   0x00, 0x10, 0x00, 0x01, 0x00, 0x00, 0x00, 0x01, 0x01, 0x00, 0x21, 0x00,
   0x42, 0x00, 0x00, 0x40, 0x00, 0x00, 0x41, 0x20, 0x01, 0x01, 0x20, 0x01,
   0x01, 0x20, 0x01, 0x12, 0x00, 0x00, 0x40, 0x90, 0x00, 0x02, 0x80, 0x00,
   0x00, 0x80, 0x00, 0x04, 0x01, 0x00, 0x08, 0x20, 0x00, 0x08, 0x08, 0x00,
   0x00, 0x00, 0x00, 0x00, 0x00, 0x00, 0x00, 0x00, 0x00, 0x10, 0x00, 0x00,
   0x1c, 0x00, 0x00, 0x32, 0x00, 0x00, 0x2f, 0x00, 0x00, 0x3f, 0x00, 0x00,
   0x07, 0x00, 0x00, 0x01, 0x00, 0x00, 0x01, 0x00, 0x00 };
