#define game_over_witch6_black_width 128
#define game_over_witch6_black_height 64
static unsigned char game_over_witch6_black_bits[] = {
   0x00, 0x00, 0xc0, 0x01, 0x00, 0x00, 0x00, 0x00, 0x1c, 0x00, 0x00, 0x00,
   0x00, 0x00, 0x00, 0x00, 0x00, 0x00, 0x78, 0x00, 0x00, 0x00, 0x00, 0x00,
   0x3c, 0x00, 0x00, 0x00, 0x00, 0x00, 0x00, 0x00, 0x00, 0x80, 0x0f, 0x00,
   0x00, 0x00, 0x00, 0x00, 0x3c, 0x00, 0x00, 0x00, 0x00, 0x00, 0x00, 0x00,
   0x00, 0xf0, 0x00, 0x00, 0x00, 0x00, 0x00, 0x00, 0xf8, 0x00, 0x00, 0x00,
   0x00, 0x00, 0x00, 0x00, 0x00, 0x1c, 0x00, 0x00, 0x00, 0x00, 0x00, 0x00,
   0xf8, 0x01, 0x00, 0x00, 0x00, 0x00, 0x00, 0x00, 0x00, 0x07, 0x00, 0x00,
   0x00, 0x00, 0x00, 0x00, 0xf0, 0x07, 0x00, 0x00, 0x00, 0x00, 0x00, 0x00,
   0x80, 0x01, 0x00, 0x00, 0x00, 0x00, 0x00, 0x00, 0xe0, 0x07, 0x00, 0x00,
   0x00, 0x00, 0x00, 0x00, 0xe0, 0x00, 0x00, 0x00, 0x00, 0x00, 0x00, 0x00,
   0xe0, 0x0f, 0x00, 0x00, 0x00, 0x00, 0x00, 0x00, 0x30, 0x00, 0x00, 0x00,
   0x00, 0x00, 0x00, 0x00, 0xe0, 0x1f, 0x00, 0x00, 0x00, 0x00, 0x00, 0x00,
   0x10, 0x00, 0x00, 0xf8, 0x7f, 0x00, 0x00, 0x00, 0xc0, 0x3f, 0x00, 0x00,
   0x00, 0x00, 0x00, 0x00, 0x10, 0xc0, 0xff, 0xff, 0xff, 0x00, 0x00, 0x00,
   0xc0, 0x7f, 0x00, 0x00, 0x00, 0x00, 0x00, 0x00, 0x30, 0xf8, 0xff, 0xff,
   0xff, 0x00, 0x00, 0x00, 0xc0, 0x7f, 0x00, 0x00, 0x00, 0x00, 0x00, 0x00,
   0xc0, 0x0f, 0x80, 0xff, 0xff, 0x00, 0x00, 0x00, 0xc0, 0xff, 0x01, 0x00,
   0x00, 0x00, 0x00, 0x00, 0x00, 0x00, 0x00, 0x00, 0x40, 0x00, 0x00, 0x00,
   0x80, 0xff, 0x07, 0x00, 0x00, 0x00, 0x00, 0x00, 0x00, 0x00, 0x00, 0x00,
   0x40, 0x00, 0x00, 0x00, 0x80, 0xff, 0x0f, 0x00, 0x00, 0x00, 0x00, 0x00,
   0x00, 0x00, 0x00, 0x00, 0x60, 0x00, 0x00, 0x00, 0x00, 0xff, 0x1f, 0x00,
   0x00, 0x00, 0x00, 0x00, 0x00, 0x00, 0x00, 0x00, 0x30, 0x00, 0x00, 0x00,
   0x00, 0xfe, 0x1f, 0x00, 0x00, 0x00, 0x00, 0x00, 0x00, 0x00, 0x00, 0x00,
   0x10, 0xf8, 0xff, 0xff, 0x07, 0xfc, 0x1f, 0x00, 0x00, 0x00, 0x00, 0x00,
   0x00, 0x00, 0x00, 0x00, 0x18, 0xff, 0xff, 0xff, 0xff, 0xff, 0x3f, 0x00,
   0x00, 0x00, 0x00, 0x00, 0x00, 0x00, 0x00, 0x00, 0xcc, 0xff, 0xff, 0xff,
   0xff, 0xff, 0x3f, 0x00, 0x00, 0x00, 0x00, 0x00, 0x00, 0x00, 0x00, 0xc0,
   0xff, 0xff, 0xff, 0xff, 0xff, 0xff, 0xff, 0x00, 0x00, 0x00, 0x00, 0x00,
   0x00, 0x00, 0x00, 0xff, 0xff, 0xff, 0x07, 0x00, 0xc0, 0xff, 0xff, 0x07,
   0x00, 0x00, 0x00, 0x00, 0x00, 0x00, 0xff, 0xff, 0xff, 0x07, 0x0c, 0x00,
   0xc0, 0xf1, 0xff, 0x1f, 0x00, 0x00, 0x00, 0x00, 0x00, 0xc0, 0xff, 0xff,
   0xff, 0x00, 0x08, 0x00, 0x60, 0x00, 0xff, 0x7f, 0x00, 0x00, 0x00, 0x00,
   0x00, 0xe0, 0xff, 0xff, 0x3f, 0xfe, 0x33, 0x00, 0x30, 0x00, 0xfc, 0xff,
   0x01, 0x00, 0x00, 0x00, 0x00, 0xf8, 0xff, 0xff, 0x1f, 0x03, 0x7e, 0x00,
   0x10, 0x3f, 0xf0, 0xff, 0x07, 0x00, 0x00, 0x00, 0x00, 0xf8, 0xff, 0xff,
   0x87, 0xc1, 0xf3, 0x00, 0xe8, 0x61, 0xc0, 0xff, 0x0f, 0x00, 0x00, 0x00,
   0x00, 0xf0, 0xff, 0xff, 0x87, 0x61, 0xc4, 0x01, 0xbc, 0x87, 0xc0, 0xff,
   0x3f, 0x00, 0x00, 0x00, 0x00, 0xc0, 0xff, 0xff, 0x07, 0xb1, 0x85, 0x03,
   0xee, 0x84, 0xc0, 0xff, 0xff, 0x00, 0x00, 0x00, 0x00, 0x00, 0x00, 0xf8,
   0x03, 0x91, 0x87, 0x00, 0xa4, 0xc5, 0xc0, 0xff, 0xff, 0x03, 0x00, 0x00,
   0x00, 0x00, 0x00, 0x80, 0x03, 0x73, 0x82, 0x00, 0xb2, 0x65, 0xc2, 0xff,
   0xff, 0x07, 0x00, 0x00, 0x00, 0x00, 0x00, 0x00, 0x02, 0xc2, 0xc3, 0x00,
   0x70, 0x36, 0xe6, 0xff, 0xff, 0x0f, 0x00, 0x00, 0x00, 0x00, 0x00, 0x00,
   0x32, 0x0e, 0x70, 0x00, 0xe0, 0x1b, 0xef, 0xff, 0xff, 0x1f, 0x00, 0x00,
   0x00, 0x00, 0x00, 0x00, 0x1a, 0xf8, 0x1f, 0x00, 0xe0, 0x8f, 0xea, 0xff,
   0xff, 0x1f, 0x00, 0x00, 0x00, 0x00, 0x00, 0x00, 0x1a, 0x00, 0x00, 0x08,
   0xa0, 0x41, 0xe1, 0xff, 0xff, 0x1f, 0x00, 0x00, 0x00, 0x00, 0x00, 0x00,
   0xe2, 0x00, 0x00, 0x0c, 0x20, 0x40, 0xa1, 0xff, 0xff, 0x0f, 0x00, 0x00,
   0x00, 0x00, 0x00, 0x00, 0xa4, 0x00, 0x08, 0x04, 0x20, 0xa0, 0x20, 0xfc,
   0xff, 0x0f, 0x00, 0x00, 0x00, 0x00, 0x00, 0x78, 0xc7, 0x03, 0x08, 0x04,
   0x30, 0x90, 0x10, 0xc0, 0xff, 0x07, 0x00, 0x00, 0x00, 0x00, 0xf8, 0xcf,
   0x49, 0x06, 0x08, 0x06, 0x10, 0x48, 0xf0, 0xff, 0xfc, 0x03, 0x00, 0x00,
   0x00, 0x00, 0x0f, 0x00, 0x88, 0x1c, 0x08, 0x02, 0x10, 0x26, 0xf8, 0xff,
   0x0f, 0x00, 0x00, 0x00, 0x00, 0x80, 0x01, 0x00, 0x10, 0xf1, 0x18, 0x00,
   0xf8, 0x21, 0xf8, 0xff, 0xff, 0x00, 0x00, 0x00, 0x00, 0x80, 0x00, 0x00,
   0x10, 0x81, 0x3f, 0x00, 0x48, 0x10, 0x7c, 0x80, 0xff, 0x0f, 0x00, 0x00,
   0x00, 0xc0, 0x00, 0x00, 0x30, 0x02, 0x68, 0x00, 0x4e, 0x90, 0x3c, 0x00,
   0xff, 0x7f, 0x00, 0x00, 0x00, 0x70, 0x00, 0x00, 0x60, 0x02, 0xc8, 0x00,
   0x23, 0x88, 0x1e, 0x00, 0xfe, 0xff, 0x03, 0x00, 0x00, 0x18, 0x00, 0x00,
   0x60, 0x04, 0xf8, 0x83, 0x25, 0x04, 0x0f, 0x00, 0xfc, 0xff, 0x0f, 0x00,
   0x00, 0x0c, 0x00, 0x00, 0xc0, 0x18, 0x60, 0x7e, 0x24, 0x82, 0x0f, 0x00,
   0xf8, 0xff, 0x3f, 0x00, 0x00, 0x06, 0x00, 0x00, 0xc0, 0x63, 0x00, 0x1f,
   0x18, 0x99, 0x07, 0x00, 0xf0, 0xff, 0x7f, 0x00, 0x00, 0x03, 0x00, 0x00,
   0x80, 0x8f, 0x00, 0x09, 0x80, 0xc8, 0x03, 0x00, 0xc0, 0xff, 0xff, 0x00,
   0x80, 0x01, 0x00, 0x00, 0x00, 0x07, 0x83, 0x10, 0x40, 0xe6, 0x01, 0x00,
   0x80, 0xff, 0xff, 0x03, 0xc0, 0x00, 0x00, 0x00, 0x00, 0x07, 0x8c, 0x10,
   0x20, 0xf3, 0x01, 0x00, 0x00, 0xff, 0xff, 0x07, 0x40, 0x00, 0x00, 0x00,
   0x00, 0x0e, 0xf0, 0xff, 0x9f, 0xf9, 0x00, 0x00, 0x00, 0xfe, 0xff, 0x0f,
   0x60, 0x00, 0x00, 0x00, 0x00, 0x1c, 0x06, 0x00, 0x80, 0x7c, 0x00, 0x00,
   0x00, 0xfc, 0xff, 0x3f, 0x30, 0x00, 0x00, 0x00, 0x00, 0x38, 0x0c, 0x00,
   0x00, 0x7c, 0x00, 0x00, 0x00, 0xf8, 0xff, 0x7f, 0x10, 0x00, 0x00, 0x00,
   0x00, 0x70, 0x18, 0x70, 0x00, 0x3e, 0x00, 0x00, 0x00, 0xf0, 0xff, 0xff,
   0x18, 0x00, 0x00, 0x00, 0x00, 0xc0, 0x30, 0x80, 0x00, 0x1e, 0x00, 0x00,
   0x00, 0xe0, 0xff, 0xff, 0x0c, 0x00, 0x00, 0x00, 0x00, 0xc0, 0x01, 0x80,
   0x00, 0x1f, 0x00, 0x00, 0x00, 0xc0, 0xff, 0xff, 0x06, 0x00, 0x00, 0x00,
   0x00, 0x80, 0x03, 0x80, 0x00, 0x0f, 0x00, 0x00, 0x00, 0xc0, 0xff, 0xff,
   0x02, 0x00, 0x00, 0x00, 0x00, 0x00, 0x06, 0x00, 0x80, 0x0f, 0x00, 0x00,
   0x00, 0x80, 0xff, 0xff, 0x01, 0x00, 0x00, 0x00, 0x00, 0x00, 0x0c, 0x00,
   0xc0, 0x07, 0x00, 0x00, 0x00, 0x00, 0xff, 0xff, 0x01, 0x00, 0x00, 0x00,
   0x00, 0x00, 0x38, 0x00, 0xe0, 0x03, 0x00, 0x00, 0x00, 0x00, 0xfe, 0xff,
   0x00, 0x00, 0x00, 0x00, 0x00, 0x00, 0xf8, 0x03, 0xf0, 0x01, 0x00, 0x00,
   0x00, 0x00, 0xfe, 0xff, 0x00, 0x00, 0x00, 0x00, 0x00, 0x00, 0xf0, 0x7f,
   0x78, 0x00, 0x00, 0x00, 0x00, 0x00, 0xfc, 0xff, 0x00, 0x00, 0x00, 0x30,
   0x00, 0x00, 0xe0, 0xff, 0x3f, 0x00, 0x00, 0x00, 0x00, 0x00, 0xfc, 0xff,
   0x00, 0x00, 0x00, 0x78, 0x00, 0x00, 0x00, 0xff, 0x1f, 0x00, 0x00, 0x00,
   0x00, 0x00, 0xf8, 0xff };
