#define game_over_witch3_black_width 128
#define game_over_witch3_black_height 64
static unsigned char game_over_witch3_black_bits[] = {
   0x00, 0x00, 0x00, 0x00, 0x18, 0x00, 0x80, 0x1f, 0x00, 0x00, 0x00, 0x00,
   0x00, 0x00, 0x00, 0x00, 0x00, 0x00, 0x00, 0x00, 0x04, 0x00, 0x00, 0x7e,
   0x00, 0x00, 0x00, 0x00, 0x00, 0x00, 0x00, 0x00, 0x00, 0x00, 0x00, 0x00,
   0x02, 0x00, 0x00, 0xf8, 0x01, 0x00, 0x00, 0x00, 0x00, 0x00, 0x00, 0x00,
   0x00, 0x00, 0x00, 0x80, 0x01, 0x00, 0x00, 0xf0, 0x07, 0x00, 0x00, 0x00,
   0x00, 0x00, 0x00, 0x00, 0x00, 0x00, 0x00, 0x40, 0x00, 0x00, 0x00, 0xe0,
   0x1f, 0x00, 0x00, 0x00, 0x00, 0x00, 0x00, 0x00, 0x00, 0x00, 0x00, 0x30,
   0x00, 0x00, 0x00, 0xc0, 0x7f, 0x00, 0x00, 0x00, 0x00, 0x00, 0x00, 0x00,
   0x00, 0x00, 0x00, 0x08, 0x00, 0x00, 0x00, 0x80, 0xff, 0x01, 0x00, 0x00,
   0x00, 0x00, 0x00, 0x00, 0x00, 0x00, 0x00, 0x04, 0x00, 0x00, 0x00, 0x80,
   0xff, 0x03, 0x00, 0x00, 0x00, 0x00, 0x00, 0x00, 0x00, 0x00, 0x00, 0x02,
   0xf8, 0x03, 0x00, 0x00, 0xff, 0x0f, 0x00, 0x00, 0x00, 0x00, 0x00, 0x00,
   0x00, 0x00, 0x00, 0x01, 0xfc, 0x07, 0x00, 0x00, 0xff, 0x1f, 0x00, 0x00,
   0x00, 0x00, 0x00, 0x00, 0x00, 0x00, 0x80, 0x00, 0xfc, 0x0f, 0x00, 0x00,
   0xfe, 0x3f, 0x00, 0x00, 0x00, 0x00, 0x00, 0x00, 0x00, 0x00, 0x40, 0x00,
   0xfe, 0x0f, 0x00, 0x00, 0xfc, 0x7f, 0x00, 0x00, 0x00, 0x00, 0x00, 0x00,
   0x00, 0x00, 0x40, 0x80, 0xff, 0x1f, 0x00, 0xe0, 0xff, 0xff, 0x00, 0x00,
   0x00, 0x00, 0x00, 0x00, 0x00, 0x00, 0x20, 0xc0, 0x1f, 0x3c, 0x00, 0xf8,
   0xff, 0xff, 0x0f, 0x00, 0x00, 0x00, 0x00, 0x00, 0x00, 0x00, 0x10, 0xe0,
   0x07, 0x3c, 0x00, 0xff, 0xff, 0xff, 0xff, 0x01, 0x00, 0x00, 0x00, 0x00,
   0x00, 0x00, 0x10, 0xe0, 0x01, 0x1c, 0xc0, 0xff, 0xff, 0xff, 0xff, 0x07,
   0x00, 0x00, 0x00, 0x00, 0x00, 0x00, 0x08, 0xf0, 0x00, 0x1e, 0xf8, 0xff,
   0xff, 0xff, 0xff, 0x0f, 0x00, 0x00, 0x00, 0x00, 0x00, 0x00, 0x08, 0xf0,
   0x00, 0x0e, 0xfe, 0xff, 0x3f, 0xfe, 0xff, 0x1f, 0x00, 0x00, 0x00, 0x00,
   0x00, 0x00, 0x08, 0x78, 0x00, 0x8f, 0xff, 0xff, 0x10, 0x03, 0xfe, 0x3f,
   0x00, 0x00, 0x00, 0x00, 0x00, 0x00, 0x10, 0x3c, 0x00, 0xff, 0xff, 0x3f,
   0x94, 0x39, 0xf2, 0x7f, 0x00, 0x00, 0x00, 0x00, 0x00, 0x00, 0x10, 0x1c,
   0x80, 0xff, 0x3f, 0xfc, 0xfe, 0x47, 0xf2, 0xff, 0x00, 0x00, 0x00, 0x00,
   0x00, 0x00, 0x10, 0x1c, 0xc0, 0xff, 0xcf, 0xff, 0x01, 0x5c, 0xe1, 0xff,
   0x00, 0x00, 0x00, 0x00, 0x00, 0x00, 0x10, 0x0c, 0xc0, 0xff, 0x23, 0x80,
   0x00, 0xf0, 0xe0, 0xff, 0x01, 0x00, 0x00, 0x00, 0x00, 0x00, 0x10, 0x06,
   0xe0, 0xff, 0x90, 0x87, 0x00, 0xc0, 0xe0, 0xff, 0x03, 0x00, 0x00, 0x00,
   0x00, 0x00, 0x20, 0x06, 0xd0, 0x7f, 0x68, 0x88, 0x00, 0x00, 0xe3, 0xff,
   0x07, 0x00, 0x00, 0x00, 0x00, 0x00, 0x20, 0x02, 0xe8, 0x3f, 0x28, 0x90,
   0x00, 0x00, 0xe4, 0xff, 0x0f, 0x00, 0x00, 0x00, 0x00, 0x00, 0xe0, 0x03,
   0xf8, 0x0f, 0x94, 0x91, 0x00, 0x20, 0xe8, 0xff, 0x1f, 0x00, 0x00, 0x00,
   0x00, 0x00, 0x00, 0x00, 0xfc, 0x07, 0x94, 0x93, 0x20, 0x40, 0xf0, 0xff,
   0x3f, 0x00, 0x00, 0x00, 0x00, 0x00, 0x00, 0x00, 0xfe, 0x03, 0x14, 0x93,
   0xc0, 0x00, 0xe0, 0xff, 0x7f, 0x00, 0x00, 0x00, 0x00, 0x00, 0x00, 0x00,
   0xff, 0x01, 0x34, 0x98, 0x00, 0x01, 0xe0, 0xff, 0x7f, 0x00, 0x00, 0x00,
   0x00, 0x00, 0x00, 0x80, 0xff, 0x00, 0xc2, 0x67, 0x00, 0x00, 0xe0, 0xff,
   0xff, 0x00, 0x00, 0x00, 0x00, 0x00, 0x00, 0xc0, 0xff, 0x00, 0x02, 0x18,
   0x00, 0xe0, 0xe3, 0xff, 0x03, 0x00, 0x00, 0x00, 0x00, 0x00, 0x00, 0xe0,
   0x7f, 0x00, 0x82, 0x07, 0x00, 0x5c, 0x1c, 0x18, 0x00, 0x00, 0x00, 0x00,
   0x00, 0x00, 0x00, 0xf0, 0x3f, 0x00, 0x7a, 0x00, 0x02, 0x63, 0x10, 0x00,
   0x00, 0x00, 0x00, 0x00, 0x00, 0x00, 0x00, 0xf8, 0x1f, 0x00, 0x07, 0x00,
   0x84, 0xb0, 0x10, 0x00, 0x00, 0x00, 0x00, 0x00, 0x00, 0x00, 0x00, 0xf8,
   0x0f, 0x00, 0x00, 0x00, 0x44, 0xbc, 0x08, 0x00, 0x00, 0x00, 0x00, 0x00,
   0x00, 0x00, 0x00, 0xfc, 0x13, 0x00, 0x03, 0x00, 0x38, 0xb2, 0x08, 0x00,
   0x00, 0x00, 0x00, 0x00, 0x00, 0x00, 0x00, 0xfc, 0x11, 0x80, 0x1c, 0x00,
   0x80, 0x69, 0x08, 0x00, 0x00, 0x00, 0x00, 0x00, 0x00, 0x00, 0x00, 0xfe,
   0x21, 0x80, 0xe8, 0x03, 0x60, 0x08, 0xfc, 0x3f, 0x00, 0x00, 0x00, 0x00,
   0x00, 0x00, 0x00, 0xfe, 0x60, 0x40, 0x10, 0xfc, 0x5f, 0x08, 0x04, 0xc0,
   0x03, 0x00, 0x00, 0x00, 0x00, 0x00, 0x00, 0x7f, 0xf8, 0x00, 0x20, 0x00,
   0x44, 0x04, 0x04, 0x00, 0x3c, 0x00, 0x00, 0x00, 0x00, 0x00, 0x00, 0x3f,
   0xf6, 0x00, 0x40, 0x00, 0x24, 0x04, 0x04, 0x00, 0xc0, 0x07, 0x00, 0x00,
   0x00, 0x00, 0x00, 0xdf, 0xe1, 0x01, 0x80, 0x00, 0x34, 0x04, 0x02, 0x00,
   0x00, 0xf8, 0x00, 0x00, 0x00, 0x00, 0x80, 0x3f, 0xe0, 0x01, 0x00, 0x01,
   0x18, 0x04, 0x02, 0x00, 0x00, 0x00, 0x7f, 0x00, 0x00, 0x00, 0x80, 0x0f,
   0xc0, 0x03, 0x00, 0x01, 0x00, 0x44, 0x02, 0xe0, 0x01, 0x00, 0x80, 0xff,
   0x00, 0x00, 0x80, 0x07, 0xc0, 0x03, 0x08, 0x02, 0x00, 0x48, 0xfa, 0xff,
   0xff, 0x07, 0x00, 0x00, 0x00, 0x00, 0x80, 0x03, 0x80, 0x07, 0x10, 0x02,
   0x00, 0x88, 0xfe, 0xff, 0xff, 0x1f, 0x00, 0x00, 0x00, 0x00, 0xc0, 0x01,
   0x80, 0x07, 0x10, 0x04, 0x00, 0x90, 0xfc, 0xff, 0xff, 0xff, 0xff, 0xff,
   0x00, 0x00, 0xc0, 0x00, 0x00, 0x07, 0x20, 0x04, 0x00, 0x90, 0xfc, 0xff,
   0xff, 0xff, 0xff, 0xff, 0x00, 0x00, 0x20, 0x00, 0x00, 0x0e, 0x20, 0x08,
   0x00, 0x10, 0xfc, 0xff, 0xff, 0xff, 0xff, 0xff, 0x00, 0x00, 0x10, 0x00,
   0x00, 0x0e, 0x40, 0x10, 0x00, 0x10, 0xfc, 0xff, 0xff, 0xff, 0xff, 0xff,
   0x00, 0x00, 0x08, 0x00, 0x00, 0x1c, 0xc0, 0x20, 0x00, 0x10, 0xfc, 0xff,
   0xff, 0xff, 0xff, 0xff, 0x00, 0x00, 0x04, 0x00, 0x00, 0x38, 0x00, 0x20,
   0x00, 0x10, 0xfc, 0xff, 0xff, 0xff, 0xff, 0xff, 0x00, 0x00, 0x02, 0x00,
   0x00, 0xf8, 0x00, 0x40, 0x00, 0x10, 0xfc, 0xff, 0xff, 0xff, 0xff, 0xff,
   0x00, 0x00, 0x01, 0x00, 0x00, 0xf0, 0x01, 0x80, 0x00, 0x90, 0xfc, 0xff,
   0xff, 0xff, 0xff, 0xff, 0x00, 0x80, 0x00, 0x00, 0x00, 0xe0, 0x03, 0x84,
   0xc0, 0x90, 0xfc, 0xff, 0xff, 0xff, 0xff, 0xff, 0x00, 0x80, 0x00, 0x00,
   0x00, 0xe0, 0x07, 0x18, 0x21, 0x89, 0xf8, 0xff, 0xff, 0xff, 0xff, 0xff,
   0x00, 0x80, 0x00, 0x00, 0x00, 0xc0, 0x1f, 0x00, 0x21, 0x09, 0xf8, 0xff,
   0xff, 0xff, 0xff, 0xff, 0x00, 0x40, 0x00, 0x00, 0x00, 0xc0, 0x7f, 0x00,
   0x26, 0x17, 0xf8, 0xff, 0xff, 0xff, 0xff, 0xff, 0x00, 0x40, 0x00, 0x00,
   0x00, 0x80, 0xff, 0x01, 0xf8, 0x6d, 0xf8, 0xff, 0xff, 0xff, 0xff, 0xff,
   0x00, 0x40, 0x00, 0x00, 0x00, 0x00, 0xff, 0x07, 0x00, 0x40, 0xf8, 0xff,
   0xff, 0xff, 0xff, 0xff, 0x00, 0x40, 0x00, 0x00, 0x00, 0x00, 0xff, 0x1f,
   0x00, 0x20, 0xfc, 0xff, 0xff, 0xff, 0xff, 0xff, 0x00, 0x20, 0x00, 0x00,
   0x00, 0x80, 0xff, 0x7f, 0x00, 0x00, 0xfc, 0xff, 0xff, 0xff, 0xff, 0xff,
   0x00, 0x20, 0x00, 0x00, 0x00, 0x80, 0xff, 0xff, 0x01, 0x00, 0xfc, 0xff,
   0xff, 0xff, 0xff, 0xff };
