#define monster_black_width 30
#define monster_black_height 30
unsigned char monster_black_bits[] = {
   0x00, 0x00, 0x00, 0x00, 0x00, 0x00, 0x00, 0x00, 0x00, 0x00, 0x00, 0x00,
   0x00, 0x00, 0x00, 0x00, 0x00, 0xc0, 0x01, 0x00, 0x00, 0x30, 0x02, 0x00,
   0x00, 0x10, 0x02, 0x00, 0x00, 0x08, 0x06, 0x00, 0x00, 0x08, 0x04, 0x00,
   0x00, 0x08, 0x04, 0x00, 0x00, 0x28, 0x09, 0x00, 0x00, 0x28, 0x09, 0x00,
   0x00, 0x04, 0x10, 0x00, 0x00, 0x04, 0x10, 0x00, 0x00, 0x02, 0x20, 0x00,
   0x00, 0x1b, 0x66, 0x00, 0x00, 0xb1, 0x43, 0x00, 0x80, 0xe0, 0x80, 0x00,
   0x80, 0x00, 0x80, 0x01, 0x40, 0x00, 0x00, 0x01, 0x40, 0x00, 0x00, 0x02,
   0x60, 0x00, 0x00, 0x02, 0x20, 0x00, 0x00, 0x02, 0xe0, 0x03, 0xff, 0x03,
   0x00, 0xfc, 0x01, 0x00, 0x00, 0x00, 0x00, 0x00, 0x00, 0x00, 0x00, 0x00,
   0x00, 0x00, 0x00, 0x00, 0x00, 0x00, 0x00, 0x00, 0x00, 0x00, 0x00, 0x00 };
