#define press_gray_width 60
#define press_gray_height 35
static unsigned char press_gray_bits[] = {
   0x00, 0x00, 0x00, 0x00, 0x00, 0x00, 0x00, 0x00, 0x00, 0x00, 0x00, 0x00,
   0x00, 0x00, 0x00, 0x00, 0x00, 0x00, 0x00, 0x00, 0x00, 0x00, 0x00, 0x00,
   0x00, 0x00, 0x00, 0x00, 0x00, 0x00, 0x00, 0x00, 0x00, 0x00, 0x00, 0x00,
   0x00, 0x00, 0x00, 0x00, 0x00, 0x00, 0x00, 0x00, 0x00, 0x00, 0x00, 0x00,
   0x00, 0x00, 0x00, 0x00, 0x00, 0x00, 0x00, 0x00, 0x00, 0x00, 0x00, 0x00,
   0x00, 0x00, 0x00, 0x00, 0x00, 0x00, 0x18, 0x00, 0x00, 0x00, 0x00, 0x00,
   0x00, 0x00, 0x38, 0x00, 0x00, 0x00, 0x00, 0x00, 0x00, 0x00, 0x58, 0x00,
   0x20, 0x00, 0x00, 0x00, 0x00, 0x00, 0x20, 0xd4, 0x9a, 0x03, 0x00, 0x00,
   0x00, 0x00, 0x38, 0x0a, 0x02, 0x01, 0x00, 0x00, 0x00, 0x00, 0x08, 0xc2,
   0x23, 0x02, 0x00, 0x00, 0x00, 0x00, 0x08, 0x02, 0x11, 0x03, 0x00, 0x00,
   0x00, 0x00, 0x08, 0xc1, 0xdd, 0x01, 0x00, 0x00, 0x00, 0x00, 0x00, 0x00,
   0x00, 0x00, 0x00, 0x00, 0x00, 0x00, 0x00, 0x00, 0x00, 0x00, 0x00, 0x00,
   0x00, 0x00, 0x00, 0x00, 0x00, 0x00, 0x00, 0x00, 0x00, 0x00, 0x00, 0x00,
   0x00, 0x00, 0x00, 0x00, 0x00, 0x00, 0x00, 0x00, 0x00, 0x00, 0x00, 0x00,
   0x00, 0x00, 0x00, 0x00, 0x08, 0x00, 0x00, 0x00, 0x00, 0x00, 0x00, 0x00,
   0x08, 0x00, 0x00, 0x00, 0x00, 0x00, 0x00, 0x00, 0x08, 0x00, 0x00, 0x00,
   0x00, 0x60, 0x11, 0x09, 0x28, 0x23, 0x01, 0x00, 0x00, 0x60, 0x59, 0x09,
   0x10, 0x28, 0x01, 0x00, 0x00, 0x20, 0x49, 0x0b, 0x08, 0x2f, 0x01, 0x00,
   0x00, 0x80, 0x48, 0x08, 0x58, 0x04, 0x01, 0x00, 0x00, 0xe0, 0x6b, 0x0b,
   0x68, 0x67, 0x01, 0x00, 0x00, 0x00, 0x00, 0x08, 0x00, 0x00, 0x01, 0x00,
   0x00, 0x00, 0x00, 0x0c, 0x00, 0x80, 0x01, 0x00, 0x00, 0x00, 0x00, 0x06,
   0x00, 0xc0, 0x00, 0x00, 0x00, 0x00, 0x00, 0x00, 0x00, 0x00, 0x00, 0x00,
   0x00, 0x00, 0x00, 0x00, 0x00, 0x00, 0x00, 0x00, 0x00, 0x00, 0x00, 0x00,
   0x00, 0x00, 0x00, 0x00 };
