#define press_black_width 60
#define press_black_height 35
static unsigned char press_black_bits[] = {
   0x00, 0x00, 0x00, 0x00, 0x00, 0x00, 0x00, 0x00, 0x00, 0x00, 0x00, 0x00,
   0x00, 0x00, 0x00, 0x00, 0x00, 0x00, 0x00, 0x00, 0x00, 0x00, 0x00, 0x00,
   0x00, 0x00, 0x00, 0x00, 0x00, 0x00, 0x00, 0x00, 0x00, 0x00, 0x00, 0x00,
   0x00, 0x00, 0x00, 0x00, 0x00, 0x00, 0x00, 0x00, 0x00, 0x00, 0x00, 0x00,
   0x00, 0x00, 0x00, 0x00, 0x00, 0x00, 0x00, 0x00, 0x00, 0x00, 0x1c, 0x00,
   0x00, 0x00, 0x00, 0x00, 0x00, 0x00, 0x24, 0x00, 0x00, 0x00, 0x00, 0x00,
   0x00, 0x00, 0x44, 0x00, 0x00, 0x00, 0x00, 0x00, 0x00, 0x00, 0x24, 0xc5,
   0x98, 0x01, 0x00, 0x00, 0x00, 0x00, 0x1c, 0x2b, 0x45, 0x00, 0x00, 0x00,
   0x00, 0x00, 0x04, 0xe1, 0xcd, 0x00, 0x00, 0x00, 0x00, 0x00, 0x04, 0x21,
   0x10, 0x01, 0x00, 0x00, 0x00, 0x00, 0x04, 0xc1, 0xcc, 0x00, 0x00, 0x00,
   0x00, 0x00, 0x00, 0x00, 0x00, 0x00, 0x00, 0x00, 0x00, 0x00, 0x00, 0x00,
   0x00, 0x00, 0x00, 0x00, 0x00, 0x00, 0x00, 0x00, 0x00, 0x00, 0x00, 0x00,
   0x00, 0x00, 0x00, 0x00, 0x00, 0x00, 0x00, 0x00, 0x00, 0x00, 0x00, 0x00,
   0x00, 0x00, 0x00, 0x00, 0x00, 0x00, 0x00, 0x00, 0x04, 0x00, 0x00, 0x00,
   0x00, 0x00, 0x00, 0x00, 0x04, 0x00, 0x00, 0x00, 0x00, 0x00, 0x00, 0x00,
   0x04, 0x00, 0x00, 0x00, 0x00, 0xe0, 0x94, 0x04, 0x34, 0x93, 0x00, 0x00,
   0x00, 0x90, 0xac, 0x04, 0x94, 0x94, 0x00, 0x00, 0x00, 0x90, 0xa4, 0x04,
   0x8c, 0x97, 0x00, 0x00, 0x00, 0x90, 0xa4, 0x04, 0x94, 0x90, 0x00, 0x00,
   0x00, 0x60, 0x25, 0x07, 0x24, 0xe3, 0x00, 0x00, 0x00, 0x00, 0x00, 0x04,
   0x00, 0x80, 0x00, 0x00, 0x00, 0x00, 0x00, 0x04, 0x00, 0x80, 0x00, 0x00,
   0x00, 0x00, 0x00, 0x03, 0x00, 0x60, 0x00, 0x00, 0x00, 0x00, 0x00, 0x00,
   0x00, 0x00, 0x00, 0x00, 0x00, 0x00, 0x00, 0x00, 0x00, 0x00, 0x00, 0x00,
   0x00, 0x00, 0x00, 0x00, 0x00, 0x00, 0x00, 0x00, 0x00, 0x00, 0x00, 0x00,
   0x00, 0x00, 0x00, 0x00 };
