#define roger_black_width 128
#define roger_black_height 64
static unsigned char roger_black_bits[] = {
   0x07, 0x00, 0x00, 0x00, 0x00, 0x00, 0x00, 0x0e, 0x00, 0x00, 0x00, 0x00,
   0x00, 0x00, 0x00, 0xe0, 0x07, 0x00, 0x00, 0x00, 0x00, 0x00, 0xc0, 0x8f,
   0xff, 0x00, 0x00, 0x00, 0x00, 0x00, 0x00, 0xe0, 0x07, 0x00, 0x00, 0x00,
   0x00, 0x00, 0xf0, 0xff, 0xff, 0x03, 0x00, 0x00, 0x00, 0x00, 0x00, 0xe0,
   0x07, 0x00, 0x00, 0x00, 0x00, 0x00, 0xbe, 0xff, 0xff, 0x0f, 0x00, 0x00,
   0x00, 0x00, 0x00, 0xe0, 0x07, 0x00, 0x00, 0x00, 0x00, 0x00, 0xfe, 0xc3,
   0xff, 0x1f, 0x00, 0x00, 0x00, 0x00, 0x00, 0xe0, 0x07, 0x00, 0x00, 0x00,
   0x00, 0x00, 0xcf, 0x00, 0xff, 0x2f, 0x00, 0x00, 0x00, 0x00, 0x00, 0xe0,
   0x07, 0x00, 0x00, 0x00, 0x00, 0x00, 0x0f, 0x80, 0xff, 0x7f, 0x00, 0x00,
   0x00, 0x00, 0x00, 0xe0, 0x07, 0x00, 0x00, 0x00, 0x00, 0x00, 0x00, 0x80,
   0xff, 0x7f, 0x00, 0x00, 0x00, 0x00, 0x00, 0xe0, 0x07, 0x00, 0x00, 0x00,
   0x00, 0x00, 0x00, 0xc0, 0xff, 0x6f, 0x00, 0x00, 0x00, 0x00, 0x00, 0xe0,
   0x07, 0x00, 0x00, 0x00, 0x00, 0x00, 0x00, 0x00, 0xdc, 0x7f, 0x00, 0x00,
   0x00, 0x00, 0x00, 0xe0, 0x07, 0x00, 0x00, 0x00, 0x00, 0x00, 0x00, 0x00,
   0xf0, 0xff, 0x00, 0x00, 0x00, 0x00, 0x00, 0xe0, 0x07, 0x00, 0x00, 0x00,
   0x00, 0x00, 0x00, 0x00, 0xd0, 0xff, 0x01, 0x00, 0x00, 0x00, 0x00, 0xe0,
   0x07, 0x00, 0x00, 0x00, 0x00, 0x00, 0x00, 0x00, 0xd0, 0xff, 0x01, 0x00,
   0x00, 0x00, 0x00, 0xe0, 0x07, 0x00, 0x00, 0x00, 0x00, 0x00, 0x00, 0x00,
   0xf2, 0xff, 0x03, 0x00, 0x00, 0x00, 0x00, 0xe7, 0x07, 0x00, 0x00, 0x00,
   0x00, 0x00, 0x00, 0x00, 0xa4, 0x7f, 0x03, 0x00, 0x00, 0x00, 0x80, 0xe7,
   0x07, 0x8f, 0x07, 0x00, 0x00, 0x00, 0x00, 0x00, 0x08, 0x3d, 0x07, 0x00,
   0x00, 0x00, 0x80, 0xe7, 0x07, 0x8f, 0x07, 0x00, 0x00, 0x00, 0x00, 0x00,
   0x00, 0x0f, 0x0e, 0x00, 0xc0, 0x00, 0x80, 0xe3, 0x07, 0x8e, 0x03, 0x00,
   0x00, 0x00, 0x00, 0x00, 0x00, 0x07, 0x0c, 0x00, 0xe0, 0x01, 0x80, 0xe3,
   0x07, 0xde, 0x03, 0x00, 0x00, 0x00, 0x00, 0x00, 0x00, 0x00, 0x0c, 0x00,
   0xc0, 0x00, 0x80, 0xe3, 0x07, 0xfc, 0xe1, 0x38, 0x06, 0x00, 0x00, 0x00,
   0x00, 0x00, 0x0c, 0x0e, 0x0e, 0xd8, 0x81, 0xe3, 0x07, 0xf8, 0xf0, 0x79,
   0x07, 0x00, 0x00, 0x00, 0x00, 0x00, 0x04, 0x1e, 0xcf, 0xf9, 0x83, 0xe3,
   0x07, 0x70, 0xf8, 0x73, 0x07, 0x00, 0x00, 0x00, 0x00, 0x00, 0x00, 0x5c,
   0xe7, 0xf9, 0x87, 0xe3, 0x07, 0x70, 0xb8, 0x73, 0x07, 0x00, 0x00, 0x00,
   0x00, 0x00, 0x00, 0xfc, 0xe7, 0x71, 0x87, 0xe1, 0x07, 0x70, 0xb8, 0x73,
   0x07, 0x00, 0x00, 0x00, 0x00, 0x00, 0x00, 0xfc, 0xc7, 0x71, 0x07, 0xe0,
   0x07, 0x70, 0xb8, 0x73, 0x07, 0x00, 0x00, 0x00, 0x00, 0x00, 0x00, 0xfc,
   0xc7, 0x71, 0x07, 0xe0, 0x07, 0x70, 0xf8, 0xf3, 0x0f, 0x00, 0x00, 0x00,
   0x00, 0x00, 0x00, 0xb8, 0xc3, 0x71, 0x87, 0xe1, 0x07, 0xf8, 0xf0, 0xe1,
   0x0f, 0x00, 0x00, 0x00, 0x00, 0x00, 0x00, 0xb8, 0xc3, 0x73, 0xcf, 0xe3,
   0x07, 0xf8, 0xe0, 0xc0, 0x0d, 0x00, 0x00, 0x00, 0x00, 0x00, 0x00, 0x10,
   0x81, 0x33, 0x8e, 0xe1, 0x07, 0x00, 0x00, 0x00, 0x00, 0x00, 0x00, 0x00,
   0x00, 0x00, 0x00, 0x00, 0x00, 0x00, 0x00, 0xe0, 0x07, 0x00, 0x00, 0x00,
   0x00, 0x00, 0x00, 0x00, 0x00, 0x00, 0x00, 0x00, 0x00, 0x00, 0x00, 0xe0,
   0x07, 0x00, 0x00, 0x00, 0x00, 0x00, 0x00, 0x00, 0x00, 0x00, 0x00, 0x00,
   0x00, 0x00, 0x00, 0xe0, 0x07, 0x00, 0x00, 0x00, 0x00, 0x00, 0x00, 0x00,
   0x00, 0x00, 0x00, 0x00, 0x00, 0x00, 0x00, 0xe0, 0x07, 0x00, 0x00, 0x00,
   0x00, 0x00, 0x00, 0x00, 0x00, 0x00, 0x00, 0x00, 0x00, 0x00, 0x00, 0xe0,
   0x07, 0x00, 0x00, 0x00, 0x00, 0x00, 0x00, 0x00, 0x00, 0x00, 0x00, 0x00,
   0x00, 0x00, 0x00, 0xe0, 0x07, 0x00, 0x00, 0x00, 0x00, 0x00, 0x00, 0x00,
   0x00, 0x00, 0x00, 0x00, 0x00, 0x00, 0x00, 0xe0, 0x07, 0x00, 0x00, 0x00,
   0x00, 0x00, 0x00, 0x00, 0x80, 0x07, 0x00, 0x00, 0x00, 0x00, 0x00, 0xe0,
   0x07, 0x00, 0x00, 0x00, 0x00, 0x00, 0x00, 0x00, 0x20, 0x00, 0x00, 0x00,
   0x00, 0x00, 0x00, 0xe0, 0x07, 0x00, 0x00, 0x00, 0x00, 0x00, 0x00, 0x00,
   0x20, 0x00, 0x00, 0x00, 0x00, 0x00, 0x00, 0xe0, 0x07, 0x00, 0x00, 0x00,
   0x00, 0x00, 0x00, 0x00, 0x00, 0x00, 0x00, 0x00, 0x00, 0x00, 0x00, 0xe0,
   0x07, 0x00, 0x00, 0x00, 0x00, 0x0c, 0x00, 0x00, 0x00, 0x00, 0x00, 0x00,
   0x00, 0x00, 0x00, 0xe0, 0x07, 0x00, 0x00, 0x00, 0x80, 0x3f, 0x00, 0x00,
   0x00, 0x00, 0x00, 0x00, 0x00, 0x00, 0x00, 0xe0, 0x07, 0x00, 0x00, 0x00,
   0x80, 0x3f, 0x00, 0x00, 0x00, 0x00, 0x00, 0x00, 0x00, 0x00, 0x00, 0xe0,
   0x07, 0x00, 0x00, 0xc0, 0xff, 0x3f, 0x00, 0x00, 0x00, 0x00, 0x00, 0x00,
   0x00, 0x00, 0x00, 0xe0, 0x07, 0x00, 0x00, 0xc0, 0xff, 0x3f, 0x00, 0x00,
   0x00, 0x00, 0x00, 0x00, 0x00, 0x00, 0x00, 0xe0, 0x07, 0x00, 0x00, 0xf0,
   0xff, 0x3f, 0x00, 0x00, 0x00, 0x00, 0x00, 0x00, 0x00, 0x00, 0x00, 0xe0,
   0x07, 0x00, 0x00, 0xf0, 0xff, 0x3f, 0x00, 0x00, 0x00, 0x00, 0x00, 0x00,
   0x00, 0x00, 0x00, 0xe0, 0x07, 0x00, 0x00, 0xfc, 0xff, 0x3f, 0x00, 0x00,
   0x00, 0x00, 0x00, 0x00, 0x00, 0x00, 0x00, 0xe0, 0x07, 0x00, 0x00, 0xff,
   0xff, 0x3f, 0x00, 0x00, 0x00, 0x00, 0x00, 0x00, 0x00, 0x00, 0x00, 0xe0,
   0x07, 0x00, 0xc0, 0xff, 0xbb, 0x3f, 0x00, 0x00, 0x00, 0xe0, 0x3f, 0x00,
   0x00, 0x00, 0x00, 0xe0, 0x07, 0x00, 0xe0, 0xff, 0xff, 0x3f, 0x00, 0x00,
   0x00, 0xe0, 0xff, 0x00, 0x00, 0x00, 0x00, 0xe0, 0x07, 0x00, 0xf0, 0xef,
   0xff, 0x3f, 0x00, 0x00, 0x00, 0xe0, 0xff, 0x03, 0x00, 0x00, 0x00, 0xe0,
   0x07, 0x00, 0xfc, 0xff, 0x7f, 0x3f, 0x00, 0x00, 0x00, 0xf0, 0xff, 0x0f,
   0x00, 0x00, 0x00, 0xe0, 0x07, 0x00, 0xfe, 0xff, 0xff, 0x7f, 0x00, 0x00,
   0x00, 0xf0, 0xff, 0x3f, 0x00, 0x00, 0x00, 0xe0, 0x07, 0x00, 0xff, 0xff,
   0xff, 0x7f, 0x00, 0x00, 0x38, 0xf0, 0xff, 0xff, 0x00, 0x00, 0x00, 0xe0,
   0x07, 0xc0, 0xbf, 0xdf, 0xff, 0x7f, 0x00, 0x00, 0x00, 0xf8, 0xff, 0xff,
   0x01, 0x00, 0x00, 0xe0, 0x07, 0xc0, 0xff, 0xff, 0xfd, 0x7f, 0x00, 0x00,
   0x00, 0xfc, 0xfe, 0xff, 0x01, 0x00, 0x00, 0xe0, 0x07, 0xf0, 0xff, 0xff,
   0xbf, 0x7f, 0x00, 0x00, 0x00, 0xfe, 0xff, 0xff, 0x7f, 0x00, 0x00, 0xe0,
   0x07, 0xf0, 0xff, 0xfe, 0xff, 0x3e, 0x00, 0x00, 0x00, 0xff, 0xdf, 0xff,
   0x7f, 0x00, 0x00, 0xe0, 0x07, 0xf0, 0xfe, 0xff, 0xff, 0x3f, 0x00, 0x00,
   0x00, 0xff, 0xff, 0xff, 0x7f, 0x00, 0x00, 0xe0, 0x07, 0xf0, 0xff, 0xff,
   0xff, 0x3f, 0x00, 0x00, 0x00, 0xfb, 0xfe, 0xfd, 0xff, 0x00, 0x00, 0xe0,
   0x07, 0xf0, 0xff, 0xf7, 0xfe, 0x3f, 0x00, 0x00, 0x20, 0xff, 0xff, 0xff,
   0xff, 0x00, 0x00, 0xe0, 0x07, 0xf8, 0xf7, 0xff, 0xff, 0x7f, 0x00, 0x00,
   0x00, 0xff, 0xff, 0xef, 0xff, 0x01, 0x00, 0xe0, 0x07, 0xf8, 0xff, 0xff,
   0xff, 0x7d, 0x40, 0x00, 0x00, 0xff, 0xff, 0xff, 0xff, 0x01, 0x00, 0xe0,
   0x07, 0xf8, 0xff, 0xff, 0xff, 0x7f, 0x00, 0x00, 0x00, 0xff, 0xef, 0xff,
   0xfe, 0x01, 0x00, 0xe0 };
