#define roger_black_width 128
#define roger_black_height 64
static unsigned char roger_black_bits[] = {
   0x00, 0x00, 0x00, 0x00, 0x00, 0x00, 0x00, 0x0e, 0x00, 0x00, 0x00, 0x00,
   0x00, 0x00, 0x00, 0x00, 0x00, 0x00, 0x00, 0x00, 0x00, 0x00, 0xc0, 0x8f,
   0xff, 0x00, 0x00, 0x00, 0x00, 0x00, 0x00, 0x00, 0x00, 0x00, 0x00, 0x00,
   0x00, 0x00, 0xf0, 0xff, 0xff, 0x03, 0x00, 0x00, 0x00, 0x00, 0x00, 0x00,
   0x00, 0x00, 0x00, 0x00, 0x00, 0x00, 0xbe, 0xff, 0xff, 0x0f, 0x00, 0x00,
   0x00, 0x00, 0x00, 0x00, 0x00, 0x00, 0x00, 0x00, 0x00, 0x00, 0xfe, 0xc3,
   0xff, 0x1f, 0x00, 0x00, 0x00, 0x00, 0x00, 0x00, 0x00, 0x00, 0x00, 0x00,
   0x00, 0x00, 0xcf, 0x00, 0xff, 0x2f, 0x00, 0x00, 0x00, 0x00, 0x00, 0x00,
   0x00, 0x00, 0x00, 0x00, 0x00, 0x00, 0x0f, 0x80, 0xff, 0x7f, 0x00, 0x00,
   0x00, 0x00, 0x00, 0x00, 0x00, 0x00, 0x00, 0x00, 0x00, 0x00, 0x00, 0x80,
   0xff, 0x7f, 0x00, 0x00, 0x00, 0x00, 0x00, 0x00, 0x00, 0x00, 0x00, 0x00,
   0x00, 0x00, 0x00, 0xc0, 0xff, 0x6f, 0x00, 0x00, 0x00, 0x00, 0x00, 0x00,
   0x00, 0x00, 0x00, 0x00, 0x00, 0x00, 0x00, 0x00, 0xfc, 0x7f, 0x00, 0x00,
   0x00, 0x00, 0x00, 0x00, 0x00, 0x00, 0x00, 0x00, 0x00, 0x00, 0x00, 0x00,
   0xf0, 0xff, 0x00, 0x00, 0x00, 0x00, 0x00, 0x00, 0x00, 0x00, 0x00, 0x00,
   0x00, 0x00, 0x00, 0x00, 0xd0, 0xff, 0x01, 0x00, 0x00, 0x00, 0x00, 0x00,
   0x00, 0x00, 0x00, 0x00, 0x00, 0x00, 0x00, 0x00, 0xd0, 0xff, 0x01, 0x00,
   0x00, 0x00, 0x00, 0x00, 0x00, 0x00, 0x00, 0x00, 0x00, 0x00, 0x00, 0x00,
   0xf2, 0xff, 0x03, 0x00, 0x00, 0x00, 0x00, 0x07, 0x00, 0x00, 0x00, 0x00,
   0x00, 0x00, 0x00, 0x00, 0xa4, 0x7f, 0x03, 0x00, 0x00, 0x00, 0x80, 0x04,
   0x00, 0x8f, 0x07, 0x00, 0x00, 0x00, 0x00, 0x00, 0x08, 0x3f, 0x07, 0x00,
   0x00, 0x00, 0x80, 0x04, 0x00, 0x89, 0x04, 0x00, 0x00, 0x00, 0x00, 0x00,
   0x00, 0x0f, 0x0e, 0x00, 0xc0, 0x00, 0x80, 0x02, 0x00, 0x8a, 0x02, 0x00,
   0x00, 0x00, 0x00, 0x00, 0x00, 0x07, 0x0c, 0x00, 0x20, 0x01, 0x80, 0x02,
   0x00, 0x52, 0x02, 0x00, 0x00, 0x00, 0x00, 0x00, 0x00, 0x00, 0x0c, 0x00,
   0xc0, 0x00, 0x80, 0x02, 0x00, 0x24, 0xe1, 0x38, 0x06, 0x00, 0x00, 0x00,
   0x00, 0x00, 0x0c, 0x0e, 0x0e, 0xd8, 0x81, 0x02, 0x00, 0x88, 0x10, 0x49,
   0x05, 0x00, 0x00, 0x00, 0x00, 0x00, 0x04, 0x12, 0xc9, 0x29, 0x82, 0x02,
   0x00, 0x50, 0x48, 0x52, 0x05, 0x00, 0x00, 0x00, 0x00, 0x00, 0x00, 0x54,
   0x25, 0x89, 0x84, 0x02, 0x00, 0x50, 0xa8, 0x52, 0x05, 0x00, 0x00, 0x00,
   0x00, 0x00, 0x00, 0xb4, 0x65, 0x51, 0x85, 0x01, 0x00, 0x50, 0xa8, 0x52,
   0x05, 0x00, 0x00, 0x00, 0x00, 0x00, 0x00, 0x14, 0x45, 0x51, 0x05, 0x00,
   0x00, 0x50, 0xa8, 0x52, 0x05, 0x00, 0x00, 0x00, 0x00, 0x00, 0x00, 0x44,
   0x44, 0x51, 0x05, 0x00, 0x00, 0x50, 0x48, 0x92, 0x08, 0x00, 0x00, 0x00,
   0x00, 0x00, 0x00, 0xa8, 0x42, 0x51, 0x85, 0x01, 0x00, 0x88, 0x10, 0x21,
   0x0a, 0x00, 0x00, 0x00, 0x00, 0x00, 0x00, 0xa8, 0x42, 0x52, 0x49, 0x02,
   0x00, 0xf8, 0xe0, 0xc0, 0x0d, 0x00, 0x00, 0x00, 0x00, 0x00, 0x00, 0x10,
   0x81, 0x33, 0x8e, 0x01, 0x00, 0x00, 0x00, 0x00, 0x00, 0x00, 0x00, 0x00,
   0x00, 0x00, 0x00, 0x00, 0x00, 0x00, 0x00, 0x00, 0x00, 0x00, 0x00, 0x00,
   0x00, 0x00, 0x00, 0x00, 0x00, 0x00, 0x00, 0x00, 0x00, 0x00, 0x00, 0x00,
   0x00, 0x00, 0x00, 0x00, 0x00, 0x00, 0x00, 0x00, 0x00, 0x00, 0x00, 0x00,
   0x00, 0x00, 0x00, 0x00, 0x00, 0x00, 0x00, 0x00, 0x00, 0x00, 0x00, 0x00,
   0x00, 0x00, 0x00, 0x00, 0x00, 0x00, 0x00, 0x00, 0x00, 0x00, 0x00, 0x00,
   0x00, 0x00, 0x00, 0x00, 0x00, 0x00, 0x00, 0x00, 0x00, 0x00, 0x00, 0x00,
   0x00, 0x00, 0x00, 0x00, 0x00, 0x00, 0x00, 0x00, 0x00, 0x00, 0x00, 0x00,
   0x00, 0x00, 0x00, 0x00, 0x00, 0x00, 0x00, 0x00, 0x00, 0x00, 0x00, 0x00,
   0x00, 0x00, 0x00, 0x00, 0x00, 0x00, 0x00, 0x00, 0x00, 0x00, 0x00, 0x00,
   0x00, 0x00, 0x00, 0x00, 0x80, 0x07, 0x00, 0x00, 0x00, 0x00, 0x00, 0x00,
   0x00, 0x00, 0x00, 0x00, 0x00, 0x00, 0x00, 0x00, 0x20, 0x00, 0x00, 0x00,
   0x00, 0x00, 0x00, 0x00, 0x00, 0x00, 0x00, 0x00, 0x00, 0x00, 0x00, 0x00,
   0x20, 0x00, 0x00, 0x00, 0x00, 0x00, 0x00, 0x00, 0x00, 0x00, 0x00, 0x00,
   0x00, 0x00, 0x00, 0x00, 0x00, 0x00, 0x00, 0x00, 0x00, 0x00, 0x00, 0x00,
   0x00, 0x00, 0x00, 0x00, 0x00, 0x0c, 0x00, 0x00, 0x00, 0x00, 0x00, 0x00,
   0x00, 0x00, 0x00, 0x00, 0x00, 0x00, 0x00, 0x00, 0x80, 0x3f, 0x00, 0x00,
   0x00, 0x00, 0x00, 0x00, 0x00, 0x00, 0x00, 0x00, 0x00, 0x00, 0x00, 0x00,
   0x80, 0x3f, 0x00, 0x00, 0x00, 0x00, 0x00, 0x00, 0x00, 0x00, 0x00, 0x00,
   0x00, 0x00, 0x00, 0xc0, 0xff, 0x3f, 0x00, 0x00, 0x00, 0x00, 0x00, 0x00,
   0x00, 0x00, 0x00, 0x00, 0x00, 0x00, 0x00, 0xc0, 0xff, 0x3f, 0x00, 0x00,
   0x00, 0x00, 0x00, 0x00, 0x00, 0x00, 0x00, 0x00, 0x00, 0x00, 0x00, 0xf0,
   0xff, 0x3f, 0x00, 0x00, 0x00, 0x00, 0x00, 0x00, 0x00, 0x00, 0x00, 0x00,
   0x00, 0x00, 0x00, 0xf0, 0xff, 0x3f, 0x00, 0x00, 0x00, 0x00, 0x00, 0x00,
   0x00, 0x00, 0x00, 0x00, 0x00, 0x00, 0x00, 0xfc, 0xff, 0x3f, 0x00, 0x00,
   0x00, 0x00, 0x00, 0x00, 0x00, 0x00, 0x00, 0x00, 0x00, 0x00, 0x00, 0xff,
   0xff, 0x3f, 0x00, 0x00, 0x00, 0x00, 0x00, 0x00, 0x00, 0x00, 0x00, 0x00,
   0x00, 0x00, 0xc0, 0xff, 0xff, 0x3f, 0x00, 0x00, 0x00, 0xe0, 0x3f, 0x00,
   0x00, 0x00, 0x00, 0x00, 0x00, 0x00, 0xe0, 0xff, 0xff, 0x3f, 0x00, 0x00,
   0x00, 0xe0, 0xff, 0x00, 0x00, 0x00, 0x00, 0x00, 0x00, 0x00, 0xf0, 0xff,
   0xff, 0x3f, 0x00, 0x00, 0x00, 0xe0, 0xff, 0x03, 0x00, 0x00, 0x00, 0x00,
   0x00, 0x00, 0xfc, 0xff, 0xff, 0x3f, 0x00, 0x00, 0x00, 0xf0, 0xff, 0x0f,
   0x00, 0x00, 0x00, 0x00, 0x00, 0x00, 0xfe, 0xff, 0xff, 0x7f, 0x00, 0x00,
   0x00, 0xf0, 0xff, 0x3f, 0x00, 0x00, 0x00, 0x00, 0x00, 0x00, 0xff, 0xff,
   0xff, 0x7f, 0x00, 0x00, 0x38, 0xf0, 0xff, 0xff, 0x00, 0x00, 0x00, 0x00,
   0x00, 0xc0, 0xff, 0xff, 0xff, 0x7f, 0x00, 0x00, 0x00, 0xf8, 0xff, 0xff,
   0x01, 0x00, 0x00, 0x00, 0x00, 0xc0, 0xff, 0xff, 0xff, 0x7f, 0x00, 0x00,
   0x00, 0xfc, 0xff, 0xff, 0x01, 0x00, 0x00, 0x00, 0x00, 0xf0, 0xff, 0xff,
   0xff, 0x7f, 0x00, 0x00, 0x00, 0xfe, 0xff, 0xff, 0x7f, 0x00, 0x00, 0x00,
   0x00, 0xf0, 0xff, 0xff, 0xff, 0x3f, 0x00, 0x00, 0x00, 0xff, 0xff, 0xff,
   0x7f, 0x00, 0x00, 0x00, 0x00, 0xf0, 0xff, 0xff, 0xff, 0x3f, 0x00, 0x00,
   0x00, 0xff, 0xff, 0xff, 0x7f, 0x00, 0x00, 0x00, 0x00, 0xf0, 0xff, 0xff,
   0xff, 0x3f, 0x00, 0x00, 0x00, 0xff, 0xff, 0xff, 0xff, 0x00, 0x00, 0x00,
   0x00, 0xf0, 0xff, 0xff, 0xff, 0x3f, 0x00, 0x00, 0x20, 0xff, 0xff, 0xff,
   0xff, 0x00, 0x00, 0x00, 0x00, 0xf8, 0xff, 0xff, 0xff, 0x7f, 0x00, 0x00,
   0x00, 0xff, 0xff, 0xff, 0xff, 0x01, 0x00, 0x00, 0x00, 0xf8, 0xff, 0xff,
   0xff, 0x7f, 0x40, 0x00, 0x00, 0xff, 0xff, 0xff, 0xff, 0x01, 0x00, 0x00,
   0x00, 0xf8, 0xff, 0xff, 0xff, 0x7f, 0x00, 0x00, 0x00, 0xff, 0xff, 0xff,
   0xff, 0x01, 0x00, 0x00 };
