#define stone_light_width 24
#define stone_light_height 23
static unsigned char stone_light_bits[] = {
   0x00, 0x00, 0x00, 0x00, 0x00, 0x00, 0x00, 0x04, 0x00, 0xa0, 0x03, 0x00,
   0xc0, 0x03, 0x00, 0xc0, 0x03, 0x00, 0xe0, 0x03, 0x00, 0xe0, 0x01, 0x00,
   0xf0, 0x01, 0x00, 0x20, 0x00, 0x00, 0x40, 0x00, 0x00, 0x20, 0x00, 0x00,
   0x00, 0x00, 0x00, 0x00, 0x00, 0x00, 0x00, 0x00, 0x00, 0x00, 0x00, 0x00,
   0x00, 0x00, 0x00, 0x00, 0x00, 0x00, 0x00, 0x00, 0x00, 0x00, 0x00, 0x00,
   0x00, 0x00, 0x00, 0x00, 0x00, 0x00, 0x00, 0x00, 0x00 };
