#define stone_black_width 24
#define stone_black_height 23
static unsigned char stone_black_bits[] = {
   0xe0, 0xff, 0x07, 0x18, 0xc0, 0x0f, 0x06, 0x80, 0x1f, 0x02, 0x00, 0x3f,
   0x02, 0x00, 0x3e, 0x02, 0x00, 0x3e, 0x02, 0x00, 0x7c, 0x02, 0x00, 0x7c,
   0x01, 0x00, 0xf8, 0x01, 0x00, 0xf8, 0x01, 0x00, 0xfa, 0x01, 0x00, 0xfc,
   0x01, 0x00, 0xfc, 0x01, 0x00, 0xfc, 0x01, 0x00, 0xf8, 0x01, 0x00, 0xfa,
   0x01, 0x00, 0x7c, 0x02, 0x60, 0x7f, 0x02, 0x90, 0x7f, 0x04, 0xe8, 0x7f,
   0x04, 0xf1, 0x7f, 0x38, 0xfe, 0x1f, 0xc0, 0xff, 0x0f };
