#define stone_gray_width 24
#define stone_gray_height 23
static unsigned char stone_gray_bits[] = {
   0x00, 0x00, 0x00, 0xe0, 0x3f, 0x00, 0xf8, 0x7b, 0x00, 0x5c, 0xfc, 0x00,
   0x3c, 0xfc, 0x01, 0x3c, 0xfc, 0x01, 0x1c, 0xfc, 0x03, 0x1c, 0xfe, 0x03,
   0x0e, 0xfe, 0x07, 0xde, 0xff, 0x07, 0xbe, 0xff, 0x05, 0xde, 0xff, 0x03,
   0xfe, 0xff, 0x03, 0xfe, 0xff, 0x03, 0xfe, 0xff, 0x07, 0xfe, 0xff, 0x05,
   0xfe, 0xff, 0x03, 0xfc, 0x9f, 0x00, 0xfc, 0x6f, 0x00, 0xf8, 0x17, 0x00,
   0xf8, 0x0e, 0x00, 0xc0, 0x01, 0x00, 0x00, 0x00, 0x00 };
