#define title_black_width 50
#define title_black_height 30
static unsigned char title_black_bits[] = {
   0x00, 0x00, 0x00, 0x00, 0x00, 0x00, 0x00, 0x00, 0x00, 0x00, 0x00, 0x00,
   0x00, 0x00, 0x00, 0x00, 0x00, 0x00, 0x00, 0x00, 0x00, 0x00, 0x00, 0x00,
   0x00, 0x00, 0x00, 0x00, 0x00, 0x00, 0x00, 0x00, 0x00, 0x00, 0x00, 0x00,
   0x00, 0x00, 0x00, 0x00, 0x00, 0x00, 0x00, 0x08, 0x40, 0x00, 0x00, 0x01,
   0x00, 0x00, 0x0c, 0x40, 0x80, 0x00, 0x01, 0x00, 0x00, 0x04, 0x20, 0x9c,
   0xc4, 0x01, 0x00, 0x00, 0x04, 0x31, 0x80, 0xa4, 0x01, 0x00, 0xc0, 0x04,
   0x09, 0x02, 0x24, 0x02, 0x00, 0x40, 0x04, 0x89, 0x02, 0x26, 0x04, 0x00,
   0x40, 0x84, 0x88, 0xe2, 0x21, 0x04, 0x00, 0x00, 0xf2, 0x66, 0x19, 0x00,
   0x07, 0x00, 0x00, 0x03, 0x00, 0x00, 0x02, 0x00, 0x00, 0x00, 0x00, 0xf4,
   0x10, 0x3a, 0x00, 0x00, 0x00, 0x80, 0x05, 0x10, 0x12, 0x00, 0x00, 0x00,
   0x00, 0x74, 0xd8, 0x1a, 0x00, 0x00, 0x00, 0x80, 0x1b, 0x04, 0x22, 0x00,
   0x00, 0x40, 0x00, 0x00, 0x00, 0x38, 0x00, 0x00, 0xc0, 0xc0, 0x00, 0x00,
   0x00, 0x00, 0x00, 0xc0, 0x45, 0x00, 0x00, 0x08, 0xc7, 0x00, 0x40, 0x14,
   0x40, 0x10, 0x28, 0x01, 0x00, 0x40, 0x14, 0x71, 0x10, 0x08, 0x19, 0x00,
   0x40, 0x94, 0x01, 0x90, 0x28, 0xc9, 0x00, 0x40, 0x94, 0x4c, 0x44, 0x2c,
   0x49, 0x00, 0x00, 0x96, 0x40, 0x47, 0x26, 0x49, 0x00, 0x80, 0x93, 0x60,
   0x68, 0x22, 0x51, 0x00, 0x00, 0x00, 0x00, 0x30, 0x03, 0x1d, 0x00, 0x00,
   0x00, 0x00, 0x00, 0x00, 0x00, 0x00 };
