#define trophy_light_width 11
#define trophy_light_height 17
static unsigned char trophy_light_bits[] = {
   0x00, 0x00, 0x00, 0x00, 0x50, 0x00, 0x00, 0x00, 0xec, 0x00, 0x88, 0x00,
   0xc0, 0x00, 0x88, 0x00, 0x48, 0x00, 0x60, 0x00, 0x60, 0x00, 0x20, 0x00,
   0x20, 0x00, 0x20, 0x00, 0x00, 0x00, 0x0c, 0x00, 0x14, 0x00 };
