#define trophy_black_width 11
#define trophy_black_height 17
static unsigned char trophy_black_bits[] = {
   0x28, 0x00, 0xd4, 0x00, 0xaa, 0x01, 0xfe, 0x03, 0x01, 0x04, 0x22, 0x02,
   0x32, 0x02, 0x22, 0x02, 0x24, 0x01, 0x88, 0x00, 0x88, 0x00, 0x50, 0x00,
   0x88, 0x00, 0x88, 0x00, 0xfc, 0x01, 0x02, 0x02, 0x02, 0x02 };
