#define trophy_gray_width 11
#define trophy_gray_height 17
static unsigned char trophy_gray_bits[] = {
   0x00, 0x00, 0x00, 0x00, 0x00, 0x00, 0x00, 0x00, 0x00, 0x03, 0x00, 0x01,
   0x00, 0x01, 0x00, 0x01, 0x80, 0x00, 0x00, 0x00, 0x00, 0x00, 0x00, 0x00,
   0x40, 0x00, 0x40, 0x00, 0x00, 0x00, 0xf0, 0x01, 0xe8, 0x01 };
