#define witch1_gray_width 18
#define witch1_gray_height 18
static unsigned char witch1_gray_bits[] = {
   0x00, 0x00, 0x00, 0xc0, 0x00, 0x00, 0x80, 0x00, 0x00, 0x80, 0x00, 0x00,
   0xc0, 0x00, 0x00, 0xc0, 0x01, 0x00, 0x00, 0x00, 0x00, 0x00, 0x00, 0x00,
   0x00, 0x00, 0x00, 0x00, 0x00, 0x00, 0x00, 0x00, 0x00, 0x80, 0x01, 0x00,
   0x80, 0x01, 0x00, 0xc0, 0x01, 0x00, 0xc0, 0x01, 0x00, 0xe0, 0x01, 0x00,
   0xe0, 0x03, 0x00, 0x00, 0x00, 0x00 };
