#define witch3_black_width 18
#define witch3_black_height 18
static unsigned char witch3_black_bits[] = {
   0x00, 0x00, 0x00, 0xf8, 0x01, 0x00, 0x20, 0x01, 0x00, 0x40, 0x03, 0x00,
   0x40, 0x07, 0x00, 0x20, 0x07, 0x00, 0x20, 0x66, 0x00, 0xf8, 0x3f, 0x00,
   0x40, 0x04, 0x00, 0x40, 0x04, 0x00, 0x40, 0x04, 0x00, 0x80, 0x03, 0x00,
   0x60, 0x06, 0x00, 0x10, 0x0e, 0x00, 0x08, 0x1c, 0x00, 0x08, 0x38, 0x00,
   0x04, 0x38, 0x00, 0xfe, 0x7f, 0x00 };
