#define witch1_black_width 18
#define witch1_black_height 18
static unsigned char witch1_black_bits[] = {
   0xf8, 0x01, 0x00, 0x20, 0x01, 0x00, 0x40, 0x03, 0x00, 0x40, 0x07, 0x00,
   0x20, 0x07, 0x00, 0x20, 0x66, 0x00, 0xf8, 0x3f, 0x00, 0x40, 0x04, 0x00,
   0x40, 0x04, 0x00, 0x40, 0x04, 0x00, 0x80, 0x03, 0x00, 0x40, 0x06, 0x00,
   0x40, 0x06, 0x00, 0x20, 0x06, 0x00, 0x20, 0x0e, 0x00, 0x10, 0x0e, 0x00,
   0x10, 0x0c, 0x00, 0xf8, 0x1f, 0x00 };
