#define witch3_gray_width 18
#define witch3_gray_height 18
static unsigned char witch3_gray_bits[] = {
   0x00, 0x00, 0x00, 0x00, 0x00, 0x00, 0xc0, 0x00, 0x00, 0x80, 0x00, 0x00,
   0x80, 0x00, 0x00, 0xc0, 0x00, 0x00, 0xc0, 0x01, 0x00, 0x00, 0x00, 0x00,
   0x00, 0x00, 0x00, 0x00, 0x00, 0x00, 0x00, 0x00, 0x00, 0x00, 0x00, 0x00,
   0x80, 0x01, 0x00, 0xe0, 0x01, 0x00, 0xf0, 0x03, 0x00, 0xf0, 0x07, 0x00,
   0xf8, 0x07, 0x00, 0x00, 0x00, 0x00 };
